<svg xmlns="http://www.w3.org/2000/svg" xmlns:xlink="http://www.w3.org/1999/xlink" viewBox="0 0 243.51 243.51"><defs><radialGradient id="f9b2a8b1-cea1-44cd-840d-a7906b3a147a" cx="121.61" cy="121.5" r="120.26" gradientUnits="userSpaceOnUse"><stop offset="0" stop-color="#93278f"/><stop offset="0.32" stop-color="#91278e"/><stop offset="0.49" stop-color="#89258b"/><stop offset="0.63" stop-color="#7b2387"/><stop offset="0.74" stop-color="#682080"/><stop offset="0.85" stop-color="#4f1c77"/><stop offset="0.94" stop-color="#31186c"/><stop offset="1" stop-color="#1b1464"/></radialGradient><linearGradient id="a1978034-084a-4121-a769-a7c042a888f8" x1="144.24" y1="289.49" x2="142.13" y2="92.59" gradientUnits="userSpaceOnUse"><stop offset="0" stop-color="#c0ff55"/><stop offset="0.1" stop-color="#c0ff58"/><stop offset="0.18" stop-color="#beff62"/><stop offset="0.26" stop-color="#bcff74"/><stop offset="0.29" stop-color="#baff7f"/><stop offset="0.34" stop-color="#8ef493"/><stop offset="0.45" stop-color="#20d9c5"/><stop offset="0.48" stop-color="#00d1d4"/><stop offset="0.6" stop-color="#157fff"/><stop offset="0.75" stop-color="#1b1464"/></linearGradient><linearGradient id="e4a9f2f3-48c3-43cf-928d-3143134a7065" x1="88.02" y1="225.25" x2="85.92" y2="184.49" gradientUnits="userSpaceOnUse"><stop offset="0" stop-color="#fff"/><stop offset="0.04" stop-color="#eefcfc"/><stop offset="0.12" stop-color="#c2f4f5"/><stop offset="0.24" stop-color="#7be6e9"/><stop offset="0.38" stop-color="#1bd4d9"/><stop offset="0.42" stop-color="#01cfd5"/><stop offset="0.61" stop-color="#08a6ca"/><stop offset="1" stop-color="#1848af"/></linearGradient><linearGradient id="a815b369-ba93-4ac4-884f-de876e829c0a" x1="126.7" y1="145.9" x2="150.92" y2="134.24" gradientTransform="matrix(0.98, 0.19, -0.19, 0.98, 19.01, -36.92)" gradientUnits="userSpaceOnUse"><stop offset="0" stop-color="#fff" stop-opacity="0"/><stop offset="0.03" stop-color="#fff" stop-opacity="0.14"/><stop offset="0.06" stop-color="#fff" stop-opacity="0.32"/><stop offset="0.11" stop-color="#fff" stop-opacity="0.48"/><stop offset="0.15" stop-color="#fff" stop-opacity="0.62"/><stop offset="0.2" stop-color="#fff" stop-opacity="0.74"/><stop offset="0.25" stop-color="#fff" stop-opacity="0.84"/><stop offset="0.31" stop-color="#fff" stop-opacity="0.91"/><stop offset="0.38" stop-color="#fff" stop-opacity="0.96"/><stop offset="0.47" stop-color="#fff" stop-opacity="0.99"/><stop offset="0.65" stop-color="#fff"/></linearGradient><linearGradient id="fe0dad7c-693f-4838-95aa-af3dcbd52eae" x1="164" y1="153.09" x2="176.19" y2="162.07" gradientTransform="translate(75.81 -94.93) rotate(32.84)" gradientUnits="userSpaceOnUse"><stop offset="0"/><stop offset="0.04" stop-color="#000909"/><stop offset="0.11" stop-color="#002323"/><stop offset="0.19" stop-color="#004c4c"/><stop offset="0.29" stop-color="#008686"/><stop offset="0.4" stop-color="#00cfcf"/><stop offset="0.44" stop-color="#00ebeb"/><stop offset="0.55" stop-color="aqua"/><stop offset="0.56" stop-color="#00f0ff"/><stop offset="0.6" stop-color="#00c7ff"/><stop offset="0.65" stop-color="#0087ff"/><stop offset="0.72" stop-color="#002eff"/><stop offset="0.75" stop-color="blue"/><stop offset="1" stop-color="#161081"/></linearGradient><linearGradient id="bd931f67-a809-4218-ac91-5cc63a2a9434" x1="137.19" y1="141.71" x2="139.31" y2="138.04" gradientTransform="translate(12.38 -29.98) rotate(8.51)" gradientUnits="userSpaceOnUse"><stop offset="0" stop-color="#fff"/><stop offset="0.09" stop-color="#fff" stop-opacity="0.96"/><stop offset="0.24" stop-color="#fff" stop-opacity="0.84"/><stop offset="0.44" stop-color="#fff" stop-opacity="0.65"/><stop offset="0.69" stop-color="#fff" stop-opacity="0.38"/><stop offset="0.96" stop-color="#fff" stop-opacity="0.05"/><stop offset="1" stop-color="#fff" stop-opacity="0"/></linearGradient><linearGradient id="f08d0c75-1661-4e55-a14c-708d93568483" x1="138.56" y1="142.56" x2="140.67" y2="138.91" xlink:href="#bd931f67-a809-4218-ac91-5cc63a2a9434"/><linearGradient id="a1986e7a-b97f-4f19-9a37-4ab87f4b2296" x1="286.73" y1="97.42" x2="305.26" y2="88.5" gradientTransform="matrix(-0.94, 0.33, 0.33, 0.94, 335.35, -51)" xlink:href="#a815b369-ba93-4ac4-884f-de876e829c0a"/><linearGradient id="ba9b779e-1d0d-4fa7-b62a-85b129ea7145" x1="290.28" y1="54.5" x2="292.58" y2="66.84" gradientTransform="matrix(-0.76, 0.65, 0.65, 0.76, 271.88, -100.02)" xlink:href="#fe0dad7c-693f-4838-95aa-af3dcbd52eae"/><linearGradient id="e436443b-f79d-4956-aa55-3059ba888619" x1="143.07" y1="114.35" x2="144.7" y2="111.52" gradientTransform="matrix(1, -0.09, 0.09, 1, -66.49, 35.04)" xlink:href="#bd931f67-a809-4218-ac91-5cc63a2a9434"/><linearGradient id="fc63ab32-f822-4773-95d3-5cee9464ebbe" x1="144.12" y1="115" x2="145.74" y2="112.19" gradientTransform="matrix(1, -0.09, 0.09, 1, -66.49, 35.04)" xlink:href="#bd931f67-a809-4218-ac91-5cc63a2a9434"/></defs><g id="e86cc124-1275-43de-937d-8087a4707ce6" data-name="Layer 2"><g id="ea790c58-fd19-4562-8fd1-12cdac6dca1f" data-name="male_human"><g id="b194d2ce-418c-4f28-bde9-6a73b0b06ad1" data-name="Layer 22"><rect x="1.35" y="1.24" width="240.51" height="240.51" style="fill:url(#f9b2a8b1-cea1-44cd-840d-a7906b3a147a)"/></g><g id="b1e8b476-2180-4b0f-ad0b-320acf8816e6" data-name="costume"><g id="bb3295be-6590-4823-b378-0cef9bc7f512" data-name="left_shoulder"><path d="M7.62,242a95.6,95.6,0,0,1,4.19-17.44c9.74-28.88,37.6-32.66,42.42-33.1l16.82,44.65L68.27,242Z" style="fill:#fff"/><path d="M53.57,192.56,70,236.09,67.63,241H8.77a96.21,96.21,0,0,1,4-16.12C17.11,212,25.5,202.62,37.69,197a53.49,53.49,0,0,1,15.88-4.47m1.33-2.12s-33.06,1.27-44,33.83A95.16,95.16,0,0,0,6.48,243H68.9l3.24-6.85L54.9,190.44Z"/><path d="M47.84,241.69A67.2,67.2,0,0,1,61.2,224.88l130.92-.67L196,241.69Z" style="fill:#fff"/><path d="M191.32,225.21l3.43,15.48H49.6a66.11,66.11,0,0,1,12-14.81l129.74-.67m1.61-2-132.09.68S53.15,230,46.13,242.69H197.24l-4.31-19.49Z"/><path d="M48.84,242.65s-9.52-11.29-12.51-16.87c-6.26-11.68-7.4-25-7.4-25,.09-.53-6.86,6.11-10.6,11.06-2.89,3.82-7.76,16.79-7.76,16.79s.08,2.31,2,7.92a43.28,43.28,0,0,0,2.26,5l33.19.51" style="fill:none;stroke:#000;stroke-miterlimit:10"/><path d="M32.77,242a40.92,40.92,0,0,1-6.82-6.4c-8.45-9.58-9.54-22.3-9.54-22.3l-6.29,15.15L7.26,242Z" style="opacity:0.2"/><path d="M54.2,225.59l-11,15.4a5.61,5.61,0,0,1-.5,1h40L68.16,190.18l-25,4.09s-2.55.34-1.53,12.59S54.2,225.59,54.2,225.59Z" style="opacity:0.2"/></g><g id="a37e5506-ea24-438d-9116-0cc18600a0c3" data-name="neck"><path d="M86.18,241.24H151.3a104.29,104.29,0,0,0,9.54-7.83c19.4-17.87,47.35-68.49,41.62-79.14-3.58-6.64-7.66-9.2-18.39-10s-31.91-1.79-52.85,9.45c-23.72,12.72-49.27,32.93-48,75.83A27.92,27.92,0,0,0,86.18,241.24Z" style="fill:url(#a1978034-084a-4121-a769-a7c042a888f8)"/><path d="M180.59,198.48,165,142.18s-26.77,38.81-39,41.7-16,2.47-16,2.47,3.92,20.82,4.08,28.85-2.42,12.39-2.42,12.39,4.59-3.45,4.21-13.92c-.41-11.31-2-24.13-2-24.13s25.45-4.3,34.3-16.89,17.27-22.81,17.27-22.81L176.5,191.2Z"/><path d="M79.28,241.76h16C77.44,202.49,117.61,189,117.61,189L97.69,156.14S65.26,160.21,56,193.76C51.7,209.26,67.25,230,79.28,241.76Z" style="stroke:#000;stroke-miterlimit:10;stroke-width:2px;fill:url(#e4a9f2f3-48c3-43cf-928d-3143134a7065)"/><path d="M84.29,241.59c-11.25-11.65-24.63-27.94-27-41.54-4.26-24.17,68.08-53.61,68.08-53.61l-4.14-5.68s-63.74,20.07-73,53.62c-4.47,16.18,13,35.81,28.23,47.21Z" style="fill:#fff;stroke:#000;stroke-miterlimit:10;stroke-width:2px"/><path d="M204.07,157c-3.57-9.45-3.83-15.83-20.68-16.09s-27.06,18.39-27.06,18.39l-39.57,29.1L93,161.33,84.84,157l-12,6.64s-11,18.64,1,43.15A392.73,392.73,0,0,0,93.67,242h5.85c-.46-9.78-4.11-18.78-1.23-20.36,3.4-1.87,13.61,5.66,13.61,5.66s5.11-3.57,6.64-8.68c1.33-4.41,1.28-12.38,1.28-12.38s9.29.09,11.62-1.41c22.21-14.3,33.06-29.49,33.06-29.49l4.09,26.3S207.65,166.44,204.07,157Z" style="opacity:0.2"/><path d="M132.57,242c1-1.09,1.9-2.17,2.75-3.22,5-6.15,6.34-13.86,7.67-21.32,1.06-6,2.15-12.11,5-17.66,3.73-7.18,4.22-7.47,8.94-10.28A173.78,173.78,0,0,0,176.52,176c13.41-10.43,20.13-19,19.43-24.76a6.24,6.24,0,0,0-4-5,16.9,16.9,0,0,0-6.56-.95c-10.72,0-28.87,4.1-35.24,5.62l7.26-12.82c1.46,0,5.62-.16,10.87-.16,19.5,0,32.14,1.5,35.58,4.22,2.69,2.13,3.21,6,3.94,11.25.9,6.63,2.15,15.7,8.78,25.8a225,225,0,0,0,22.92,29.19L154.12,242Z" style="fill:#fff"/><path d="M168.3,138.89c27,0,33.44,2.8,35,4,2.37,1.87,2.87,5.53,3.57,10.6.92,6.72,2.18,15.92,8.93,26.2a228.62,228.62,0,0,0,22,28.26L153.93,241H134.77c.46-.53.9-1.07,1.33-1.59,5.14-6.35,6.53-14.19,7.87-21.77,1.05-5.88,2.13-12,4.94-17.37,3.61-6.93,4-7.16,8.57-9.9a172.71,172.71,0,0,0,19.65-13.62C191,166,197.7,157.33,196.94,151.11a7.28,7.28,0,0,0-4.56-5.82,17.8,17.8,0,0,0-7-1c-9.76,0-25.53,3.35-33.24,5.13L158,139c1.79-.06,5.59-.15,10.27-.15m0-2c-6.63,0-11.46.18-11.46.18l-8.68,15.32s24.34-6.14,37.25-6.14a16.14,16.14,0,0,1,6.15.87c6.13,2.72,5.79,11.4-15.66,28.08-25,19.41-22.12,11.41-28.76,24.17s-3.92,28.09-12.6,38.81c-1.35,1.67-2.78,3.29-4.24,4.85h24l87-34.3a216.71,216.71,0,0,1-23.83-30.12c-11.75-17.88-6.2-32-12.94-37.28-4.79-3.78-23.69-4.44-36.2-4.44Z"/><g style="opacity:0.2"><path d="M157,243l3.13-1.16c-2.38-12.12-4.14-29.65,3.35-37.14,27.83-27.83,30.8-44.07,31.11-46.81-2.28,4.79-7.42,10.91-16.81,18.22-25,19.41-22.47,10.47-29.11,23.23s-5.11,30.9-13.79,41.62c-.56.69-1.14,1.37-1.75,2Z"/></g></g><g id="ad3318fb-561e-4f98-b7c2-bd77023d820c" data-name="right_shoulder"><path d="M175,242.44,233.47,191l-26.05-4.09S189.21,198,170.83,210.22s-23.42,18.61-23.44,28.47c0,1.24,0,2.49-.1,3.75Z" style="opacity:0.2"/><path d="M164.09,242c-4.09-3-7.34-4.9-8.11-5.35a5.62,5.62,0,0,1,.49-7.39c8.15-8.17,32.73-31.27,48.35-39.94,11.18-6.21,19.54-9.11,26.3-9.11a20.5,20.5,0,0,1,10.87,3V242Z" style="fill:#fff;fill-rule:evenodd"/><path d="M231.12,181.16a19.44,19.44,0,0,1,9.87,2.59V241H164.41c-3.73-2.69-6.74-4.51-7.75-5.11a4.62,4.62,0,0,1,.52-5.92c8.12-8.14,32.61-31.17,48.12-39.78,11-6.12,19.24-9,25.82-9m0-2c-7.2,0-15.75,3.1-26.79,9.23-15.39,8.55-39.27,30.8-48.57,40.12a6.63,6.63,0,0,0-.45,8.86s3.72,2.13,8.46,5.58H243V182.62a21.45,21.45,0,0,0-11.87-3.46Z"/><path d="M174.49,241.78a119.86,119.86,0,0,0-11-8.2,2.22,2.22,0,0,1,.25-2.89c7.43-7.34,33-31.86,50.46-39.33,11.6-5,19.41-7.1,26.1-7.1q.89,0,1.74.06v57.46Z" style="fill:#fff;fill-rule:evenodd"/><path d="M240.27,185.26H241v55.51H174.85a119.72,119.72,0,0,0-10.66-7.92,1.25,1.25,0,0,1,.22-1.46c7.4-7.31,32.89-31.73,50.15-39.13,11.47-4.91,19.16-7,25.71-7m0-2c-7.67,0-16.3,2.81-26.49,7.18C196.16,198,170.44,222.64,163,230a3.25,3.25,0,0,0-.24,4.36,114.82,114.82,0,0,1,11.35,8.45H243V183.39c-.9-.09-1.81-.13-2.74-.13Z"/><path d="M216.07,184.82c-.76.77,16.09.51,16.09.51s-12.54.88-32.43,20.17c-1.45,1.41-2.92,2.91-4.35,4.44a15.11,15.11,0,0,0,1.12,21.7l.17.16c5.62,5.1,6.38,9.19,6.38,9.19l-45.44,1s-6.39-7.66-3.58-11.49,24.08-19.23,32.94-28.08C201.52,187.88,216.07,184.82,216.07,184.82Z" style="opacity:0.2"/><path d="M219.15,241.38a62.94,62.94,0,0,0-11.59-18.46c-4.32-4.93-16.45-12-19.33-13.65a109.94,109.94,0,0,1,16.69-12.36,125.19,125.19,0,0,1,16.71-8.08c1.37.93,9,6.1,11.72,8.61a64.47,64.47,0,0,1,7.89,8.23l.54,35.42Z" style="fill:#fff"/><path d="M221.56,189.39c1.82,1.23,8.86,6,11.46,8.42a66.38,66.38,0,0,1,7.72,8l.53,34.76-21.77.27a63.49,63.49,0,0,0-11.57-18.28c-4.11-4.7-15.15-11.28-18.85-13.41a108.83,108.83,0,0,1,16.1-11.84,126.33,126.33,0,0,1,16.38-8m.13-1.12a124.77,124.77,0,0,0-17,8.21,110,110,0,0,0-17.29,12.88s15,8.4,19.8,13.88c8.79,10,11.62,18.64,11.62,18.64l23.49-.29-.56-36.09s-2-2.94-8-8.43c-3.07-2.8-12-8.8-12-8.8Z"/></g></g><g id="e59b8d93-7a71-4987-b0de-9cce437df776" data-name="head"><g id="ade741a4-a8c2-4fb3-b9ec-bde9e9950c25" data-name="face_shape"><path d="M115,52.05c-62.3,10.73-52.09,59.24-52.09,59.24s11.75,46.21,19.92,55.4,7.93,9.88,15.06,17.62c8.94,9.7,10.21,16.08,24.77,14.81,11-1,32.6-21.47,38-28.07l4.82-19.17L169.6,159c6.75-9.65,15.21-24.08,16.86-39.57C189,95.46,182.65,40.4,115,52.05Z" style="fill:#ffe0c9;stroke:#000;stroke-miterlimit:10;stroke-width:2px"/><path d="M112.93,191.71c-8.88-3.71-24.52-30.12-24.52-30.12l18,.85L95.56,157l2.3-26S91.73,121.5,90,116.39,86,105.07,85.52,88.73c-.26-8.42,1.73-23.94,6.12-30.24-36.43,17-29,52.3-29,52.3S74.37,157,82.54,166.2s7.93,9.87,15.07,17.61c8.93,9.71,10.21,16.09,24.76,14.81,10.19-.89,29.34-18.42,36.49-26.31C146.44,179.58,129.61,198.69,112.93,191.71Z" style="opacity:0.2"/></g><g id="a00847ee-46bc-4854-853c-a2cff195f7fb" data-name="eyes"><g id="bf48b241-7f07-4b24-a061-d7ec9cdc8e41" data-name="eyebrows"><path d="M93.67,125c-3.1-1-11.73-3.7-16.16-4.34-4.61-.65-10.11-.86-11.57-.91l-1.89-6.53c1.25-.06,4.2-.19,7.3-.19,2.39,0,4.39.07,6,.22a69,69,0,0,1,12,2.64Z" style="fill:#fbb03b"/><path d="M71.35,112.51v1c2.37,0,4.36.07,5.91.22a68.61,68.61,0,0,1,11.64,2.55l3.81,7.87c-3.72-1.18-11.12-3.43-15.13-4-4.31-.62-9.39-.84-11.26-.9l-1.61-5.58c1.45-.07,4-.16,6.64-.16v-1m0,0c-4.14,0-8,.22-8,.22l2.17,7.49a118.56,118.56,0,0,1,11.88.92c5.36.76,17.19,4.68,17.19,4.68l-5-10.36a71,71,0,0,0-12.26-2.73c-1.79-.17-3.93-.22-6-.22Z"/><path d="M136.49,99.51a84.48,84.48,0,0,1,9-1.72l3.49,6.54c-1.14.3-3.78,1-7.22,2.24Z" style="fill:#fbb03b"/><path d="M145.18,98.33l3,5.68c-1.28.35-3.49,1-6.3,2l-4.57-6.16c3.52-.84,6.54-1.31,7.84-1.49m.55-1.09a86.84,86.84,0,0,0-10.09,2l5.91,8c4.85-1.69,8.14-2.51,8.14-2.51l-4-7.41Z"/><path d="M110.89,111.42a159.74,159.74,0,0,1,16.41-8.87,49.28,49.28,0,0,1,6-2.16l5.19,7.37c-3.41,1.29-6.68,2.69-9.73,4.18-6.16,3-14.52,8.89-17,10.67Z" style="fill:#fbb03b"/><path d="M133.05,101l4.61,6.55c-3.21,1.23-6.29,2.57-9.17,4-5.76,2.81-13.23,8-16.36,10.19l-.72-10A158.85,158.85,0,0,1,127.5,103a48.06,48.06,0,0,1,5.55-2m.4-1.16a50,50,0,0,0-6.35,2.29,158.81,158.81,0,0,0-16.73,9.06l.9,12.38s10.34-7.57,17.66-11.15c3.64-1.78,7.19-3.24,10.3-4.39l-5.78-8.19Z"/></g><g id="f0070f75-22ef-4e4f-9df3-70d68de02d6e" data-name="r_eye"><polygon points="121.99 115.82 111.22 122.27 111.73 132.73 121.1 120.9 145.27 117.25 149.69 104.73 134.07 109.01 121.99 115.82" style="opacity:0.1"/><path d="M114.86,128.41l4.85-5.7s11.62-4.07,17.11-6,6.47.6,6.47.6-1.75,11.08-4.18,13.46-2.79,3.59-6.91,3.79-13,.85-16-.08C114.37,133.85,114.86,128.41,114.86,128.41Z" style="fill:url(#a815b369-ba93-4ac4-884f-de876e829c0a)"/><path d="M138,131.07c-1.8,2.79-6.93,3.24-10.53,1.92s-3.16-8.37-1.37-11.15,7.56-4.54,10.64-2.55S139.77,128.29,138,131.07Z" style="stroke:#000;stroke-miterlimit:10;stroke-width:2px;fill:url(#fe0dad7c-693f-4838-95aa-af3dcbd52eae)"/><path d="M132.21,129.91a3.86,3.86,0,0,1-3.92-3.81c0-2.14,1.44-4.66,3.57-4.69S136,123.87,136,126A3.88,3.88,0,0,1,132.21,129.91Z"/><path d="M136.12,125.07a2.58,2.58,0,0,1-2.59-1.46c-.29-.85.65-1.63,1.49-1.92s1.76.68,2,1.52A1.38,1.38,0,0,1,136.12,125.07Z" style="fill:#f2f2f2;opacity:0.8"/><path d="M130.05,127.38l-3.14,2.43a1.69,1.69,0,0,0,.19.5,1.21,1.21,0,0,0,.44.48Z" style="fill:url(#bd931f67-a809-4218-ac91-5cc63a2a9434)"/><path d="M130.27,127.66l-2.08,3.64a.89.89,0,0,0,.47.41,1.92,1.92,0,0,0,.56.1Z" style="fill:url(#f08d0c75-1661-4e55-a14c-708d93568483)"/><path d="M118.52,122.05c-.89,1.33-4.59,7.9-4.59,7.9s5.28-5.88,8.17-7.36a50.64,50.64,0,0,1,9.65-3.86,17.78,17.78,0,0,1,7.56-.25,2.49,2.49,0,0,1,2,2.08l.54,3.62,4.17-8.8c.29-.61-9-1.67-17.32,1.2C124.86,117.9,119.41,120.71,118.52,122.05Z"/><path d="M116.24,134.69s15.38-.21,19.12-2.49c4.77-2.89,5.14-3.93,5.14-3.93S139,134,135.79,134.5A79.07,79.07,0,0,1,116.24,134.69Z"/></g><g id="b739999a-fc5a-4676-b807-49c043ccffcf" data-name="l_eye"><path d="M96.35,133l-2.68-3.9s-10-2-14.74-3-5.24,1.25-5.24,1.25,2.71,9,5,10.74,2.79,3,6.2,2.64a34.44,34.44,0,0,0,11.18-3.53C97.44,136.28,96.35,133,96.35,133Z" style="fill:url(#a1986e7a-b97f-4f19-9a37-4ab87f4b2296)"/><path d="M84.67,137.62c1.66,1.9,5.06,1.65,7.68.3s2-6.9.34-8.8-6.25-2.62-8.39-.83S83,135.73,84.67,137.62Z" style="stroke:#000;stroke-miterlimit:10;fill:url(#ba9b779e-1d0d-4fa7-b62a-85b129ea7145)"/><path d="M88.84,135.77a2.93,2.93,0,0,0,2.6-3.25c-.2-1.59-1.58-3.33-3.22-3.13s-2.91,2.25-2.7,3.85A3,3,0,0,0,88.84,135.77Z"/><path d="M91.64,132a1.94,1.94,0,0,0-.49-2.13c-.52-.35-1.23.21-1.59.77s.12,1.39.63,1.74A1,1,0,0,0,91.64,132Z" style="fill:#f2f2f2;opacity:0.8"/><path d="M87.47,134l-2,2.37a1.06,1.06,0,0,0,.23.34,1,1,0,0,0,.4.27Z" style="fill:url(#e436443b-f79d-4956-aa55-3059ba888619)"/><path d="M87.67,134.15l-1,3.08a.65.65,0,0,0,.43.21,1.51,1.51,0,0,0,.43,0Z" style="fill:url(#fc63ab32-f822-4773-95d3-5cee9464ebbe)"/><path d="M94.57,128.39c.89,1,2,5.3,2,5.3s-2.37-3.53-4.92-4.43a41.27,41.27,0,0,0-8.36-2.09,14.63,14.63,0,0,0-6.24.68,2.06,2.06,0,0,0-1.4,2l0,3.07-3.92-7.76c-.3-.48,6.64-1.52,13.84-.11C88.89,125.67,93.69,127.38,94.57,128.39Z"/><path d="M96.37,136.94S85,140.22,81.61,138.76c-4.24-1.86-4.52-2.83-4.52-2.83s1.76,4.67,4.44,4.79C90.91,141.15,96.37,136.94,96.37,136.94Z"/></g></g><g id="f5e00e0a-c41b-450a-9318-df8e8479e0c3" data-name="hair"><g style="opacity:0.2"><path d="M110.88,97.24s-4.93,12.09-10.72,17-11.92,11.4-11.92,11.4,1.45-3,5.54-11.19c3.55-7.11,2.81-8.94,2.81-8.94s-11.07,7.36-15.83,10.6S62,124,62,124l49.7-34.21Z"/><path d="M133.35,84.48s1.19,6.3-1.7,11.74-8.17,17.19-8.17,17.19L126.71,94a27.3,27.3,0,0,1-5.36,7.58c-3.4,3.23-8.68,8.29-8.68,8.29s7.23-12.12,9.79-15.7,7.66-14,7.66-14Z"/></g><path d="M139.35,38.14l-8.42-10s-13.15.89-22.6-1.15-22.85-8-22.85-8l13.4,16.85s-13.4,4.6-23.61,5.62-29.49-1.92-29.49-1.92a28.92,28.92,0,0,0,9.7,7.28C61.61,49.63,69.78,53,69.78,53S55.86,61.37,51,65,44.37,75.54,31.86,83.2s-17.74,8-17.74,8S36,90,41.56,87.16a116.51,116.51,0,0,1,14.3-5.49s-13,19.28-21.19,26.94-20.94,13-20.94,13,14.27,3.36,25.79,4S57.14,122,57.14,122a67.86,67.86,0,0,1-6.64,12c-3.72,5.48-.89,2-6,5.36,0,0,10.6-.13,17.23-3.19s7-3.06,7-3.06l-3.71-11.36a213.78,213.78,0,0,0,21.19-13.41C96,101.2,104.5,96.22,104.5,96.22s-3.38,9.77-6.38,16.6a41.7,41.7,0,0,1-7.28,11s10.72-2.43,20.94-14.68S129.52,80,129.52,80s1.15,10.6-.38,18a74.43,74.43,0,0,1-2.94,11s4.1-2,9.58-13.92C138.78,88.56,140,85,140,85s13.58,8.15,18.13,18.13c4.42,9.7,3.83,30.51,3.83,30.51l4.21-5.62s.23-18.8,10.72-18.13c14.88,1,2.81,33.07-3.83,37.15s-7.4,2.56-7.4,2.56l6.51,21.57,2.68-4.85s-1.33-11.41,6.26-23.75c1.76-2.87,9.31-13.78,9.31-13.78l1.54-20,6.25,9.83s-.21-14,.39-18.76c.83-6.79,1-18.07,1.27-17.36,0,0-6.13-11.37-9.19-15.45s-10-14.81-10-14.81a79.33,79.33,0,0,0,12.9,4.6c7.66,2,12.83,3,12.83,3s-10.66-4.13-16.28-10.52S180.59,38,174,37.24s-17.75,1-17.75,1L175.35,25.5A70.31,70.31,0,0,1,160,28.44c-7.91.51-8.68.38-13.79,3.44S139.35,38.14,139.35,38.14Z" style="fill:#fbb03b"/><path d="M179.05,115.53c-1.09-1.6-4.48-2.46-7.43.35C167,120.27,170.26,129,170.26,129s-.77-7.75,4.08-11.15,5.44,2,5.44,2S179.74,116.55,179.05,115.53Z" style="opacity:0.5"/><path d="M86.2,72.9S76.75,89,72.24,97.07,55,127.24,55,127.24,64.71,124.69,76.8,116,98,101.33,98,101.33,82.8,110,73.48,115.63s-13.83,8.17-13.83,8.17,10.56-17.49,15.11-25.41S86.2,72.9,86.2,72.9Z"/><g style="opacity:0.4"><path d="M104.41,95.71s-12.51,6.62-20.93,11.41c-16.17,9.19-17.36,5.27-17.36,5.27L77,93S58,110.52,46.37,116.14c-7.93,3.85-33.19,6-33.19,6s19.41,4.93,26.21,4.08a155.52,155.52,0,0,0,16.85-3.57,43.66,43.66,0,0,1-4.59,9.19,34.35,34.35,0,0,1-7.83,7.66S57.44,138.1,59,137.59s10.55-4.26,10.55-4.26L65.1,122.1Z"/><path d="M121.78,93.84S109.69,107.63,104.41,111s-7,2.21-7,2.21l-5.62,9.54s14.64-6.64,17.36-9.88S121.78,93.84,121.78,93.84Z"/><path d="M139.48,84.82s-6.13,10.72-8,11.91-4.09,2.56-4.09,2.56l-1.7,9.7s8.17-6.64,9.7-12.09S139.48,84.82,139.48,84.82Z"/><path d="M31.56,83.63s-.51,1,6.64,0,17-2.73,17-2.73-13.1,5.45-16.68,6.47S17.61,91,17.61,91Z"/><path d="M45.69,40.73s3.92,3.92,7,5.28,18.19,7.64,18.19,7.64l8.87-5.94s-15.06-1-20.76-2.55c-3.72-1-13.26-5.49-13.26-5.49Z"/><path d="M86,18.48l13.4,18,6.77-2.81A33.69,33.69,0,0,1,97,28.18C95.81,27.18,86,18.48,86,18.48Z"/><path d="M197.18,117.67,191.9,88.39s-1,9-3.06,18.39c-2.38,10.89-5.62,7.66-5.62,7.66l-.34,13.95L179,138.1s-3.07,6.46-6.3,8.51A25.61,25.61,0,0,1,166,149.5L172.5,171,174,167.2s-.51-10.55,3.24-17.53S190,128.05,190,128.05l2.73-18Z"/></g><g id="be389a53-1a6c-4755-be75-fdff1ca00807" data-name="highlights"><path d="M185.9,58.15,181,54.28l.34,10.42-3.42-6.47,2.42,10.05-11-12.6.23,8.1-11.31-9.52a49.1,49.1,0,0,1,4,12.86c1.4,7.91,1.21,9.06,1.21,9.06L156.18,62.3l2.18,9.77L149,61a75.1,75.1,0,0,1,3.27,7.26,15.76,15.76,0,0,1,1,6.61L141.55,60.66s1.13,6.22,1.55,10.6a35.45,35.45,0,0,0,1.68,7.43s-.13,0-4.58-5.22A19.1,19.1,0,0,1,137,67.32l-.66,15.06,2.41-7.11s.22.88,3.22,3.14A36.19,36.19,0,0,0,148,82.06l-3-13.34,8.95,11.07,1.77-6,9.66,7.27s1.08-3.39.1-9.24-2.07-9.74-2.07-9.74a21.92,21.92,0,0,1,5.47,6.83A34.4,34.4,0,0,0,172.6,75l-1.54-13.05a19.81,19.81,0,0,1,5.88,6.73,45.4,45.4,0,0,0,6.63,8.59l1.48-10.67s7.4,7.87,10.72,12.39C198.91,83.23,185.9,58.15,185.9,58.15Z" style="fill:#fff;opacity:0.35000000000000003"/><path d="M119.73,69.71,107.8,87.8l-4.64-12-2.83,6.69L99.52,79l-3.83,5.47-.64-4.24L90.29,90.35l4.25-5.51.26,3.36,4.34-6.15a10.11,10.11,0,0,1-.77,4.56c-1,2.55-2.49,6.43-2.49,6.43,5.55-5.81,8-11.37,7.62-11.6,0,0,1.41,1.9,2.22,6.29a29.89,29.89,0,0,1,.67,6.5L116.86,78s2.11,3.32.66,9a35.34,35.34,0,0,0,2.64-8.34A29.86,29.86,0,0,0,119.73,69.71Z" style="fill:#fff;opacity:0.4"/></g><path d="M88.54,21.51c5.81,2.35,14.15,5.5,19.94,6.75a59.11,59.11,0,0,0,12.32,1.11c4.24,0,7.83-.29,9.53-.46l8,8.71,1.79,2,1.38-2.29s1.46-2.25,6-5c3.79-2.27,5.12-2.34,10-2.58,1.05-.05,2.23-.11,3.61-.2a67.36,67.36,0,0,0,7.11-.89l-9.6,6.15L150.53,40,160,38.5a68.18,68.18,0,0,1,9.55-.73A37.88,37.88,0,0,1,174,38c5.27.61,8.94,4.82,13.59,10.15l1.47,1.69a44.57,44.57,0,0,0,8.71,7.27c-.73-.15-1.52-.34-2.35-.56a64.89,64.89,0,0,1-10.34-3.43l-7.2-3.61,4.68,6.56c.05.07,5.15,7.21,8.19,11.27,2.58,3.43,7.52,12.52,8.75,14.79-.24,2.73-1.26,14.08-1.73,18.25-.39,3.46-.66,9.55-.83,14.39l-2.33-4.16-3.09-5.51-.65,6.28-1.73,16.87c-1.48,2.25-8.37,12.7-10,15.31-6.8,11.06-6.18,20.75-5.81,23.53l-.88,1.54-5.14-17.92a19,19,0,0,0,5.56-2.53c5.84-3.59,14.3-22.32,11.82-32.32a8.72,8.72,0,0,0-8.38-7.06l-.65,0a8.43,8.43,0,0,0-6.32,2.73c-4.55,4.79-4.7,14.76-4.65,17.62L163,131.32c-.29-7.65-1.26-21.17-4.48-28.22-4.74-10.4-16.42-17.91-16.91-18.22l-2.36-1.49-.66,2.71a58.86,58.86,0,0,1-3.38,8.37,52.33,52.33,0,0,1-7.53,11.87c.58-2.39,1.22-5.14,1.79-7.88a59.6,59.6,0,0,0,1.32-13.52l-.38-8.21L127,84.2a126.08,126.08,0,0,1-15.8,24.57A47.43,47.43,0,0,1,94,121.47a51.45,51.45,0,0,0,5-8.57c3-6.81,5.14-12.84,5.16-12.9L106,94.81l-4.74,2.8c-.23.14-5.82,3.45-15.49,10.58a148.51,148.51,0,0,1-19.88,12.07l-1.54.74.5,1.64,3,9.93c-1.32.53-3.45,1.45-6.78,3C58,137,52.71,137.75,47.71,138c.88-.94,1.88-2.09,3-3.5,5.19-6.48,5.8-9.25,5.87-9.74l.49-3.47-3.24,1.35c-.05,0-5.08,2-13.94,2-1,0-2.09,0-3.15-.08A149.63,149.63,0,0,1,17,122c5-2.93,12.85-7.92,18.26-13,8.23-7.72,19.22-23.65,19.68-24.33L58.07,80l-5.39,1.57a82.41,82.41,0,0,0-12.07,4.73C38,87.6,29.82,88.74,22.08,89.55c3.05-1.48,6.52-3.34,10.25-5.62A47.31,47.31,0,0,0,47,70.35a21.39,21.39,0,0,1,4.14-4.64c4.71-3.47,16.54-10.28,16.66-10.35l3.36-1.93-3.52-1.62L54.84,45.94A29.67,29.67,0,0,1,48,41.26a219.54,219.54,0,0,0,22.17,1.55c2,0,3.77-.07,5.22-.21a100.76,100.76,0,0,0,21.69-5.23l2.49-.92L98,34.31l-9.46-12.8m-5.93-4.65L96.39,35.5s-11,4.09-21.19,5.11c-1.46.14-3.17.2-5,.2-11.15,0-27.66-2.25-27.66-2.25S47.88,45,54,47.76s12.77,5.87,12.77,5.87-12,6.89-16.85,10.47S43.8,74.56,31.29,82.22A101.42,101.42,0,0,1,9.07,92.69S35.88,90.9,41.5,88.1a80.79,80.79,0,0,1,11.74-4.6S42,99.84,33.84,107.5s-22.47,15.32-22.47,15.32,13.76,3.23,25.28,3.83c1.13.06,2.22.08,3.25.08,9.45,0,14.71-2.21,14.71-2.21s-.34,2.38-5.45,8.77S42,140.18,42,140.18h.76c2.9,0,13.47-.19,19.16-2.82a85.69,85.69,0,0,1,8.4-3.59l-3.57-11.73A147.9,147.9,0,0,0,87,109.8c9.7-7.15,15.32-10.47,15.32-10.47s-2.11,5.94-5.11,12.77c-2.81,6.38-8.94,13.53-8.94,13.53a50.09,50.09,0,0,0,24.51-15.58,126.38,126.38,0,0,0,16.09-25,58.4,58.4,0,0,1-1.28,13C126,105.46,124,112.86,124,112.86s7.61-5.66,13.08-17.55c3-6.51,3.51-8.75,3.51-8.75s11.62,7.39,16.17,17.37c4.43,9.7,4.43,33,4.43,33l5.62-7.15s-1-19,8.94-19l.52,0c14.88,1,2.28,31.59-4.36,35.68-3.06,1.88-4.86,2.39-5.9,2.39-1.21,0-1.41-.68-1.42-.69l7.32,25.53,3.6-6.23s-2.16-10.54,5.42-22.87c1.77-2.88,10.22-15.66,10.22-15.66l1.78-17.36,5.88,10.46s.32-15.23,1-21.44c.54-4.82,1.79-18.9,1.79-18.9s-6.13-11.49-9.2-15.57-8.17-11.24-8.17-11.24A63.35,63.35,0,0,0,195,58.48a36.76,36.76,0,0,0,9.38,1.42,12.16,12.16,0,0,0,2.11-.14s-10.22-4.86-15.83-11.24S180.9,36.78,174.27,36a40.81,40.81,0,0,0-4.69-.24,70.57,70.57,0,0,0-9.87.75l19.15-12.25A105.72,105.72,0,0,1,161,27.59c-7.92.51-9.45,0-14.55,3.06s-6.64,5.62-6.64,5.62l-8.68-9.45a96.94,96.94,0,0,1-10.32.55,58.22,58.22,0,0,1-11.9-1.06c-9.44-2-26.29-9.45-26.29-9.45Zm82,131.32Z"/></g><path d="M94.55,125.69l-1.92-.87s3.19,1.75,4.21,7.62c1.34,7.72-3.06,26.51-3.06,26.51l13.53,3.91L98.12,157s.93-23.15-.34-26.21A18,18,0,0,0,94.55,125.69Z"/><path d="M99.39,169.35c-.23-.76.35-1.11,2.28-.39,3.94,1.47,13.68,2.47,21.17,1.2,3.42-.58,13.95-4.29,14.93-4.62,2.61-.9-1.27,1.72-2.11,2-2.22.87-12.57,4.53-16.22,4.79-4.3.31-7.19-.12-12,.62a6.52,6.52,0,0,1-4.9-.89C100.76,170.94,99.63,170.11,99.39,169.35Z"/></g><rect x="1.5" y="1.5" width="240.51" height="240.51" style="fill:none;stroke:#000;stroke-miterlimit:10;stroke-width:3px"/></g></g></svg>