<svg xmlns="http://www.w3.org/2000/svg" xmlns:xlink="http://www.w3.org/1999/xlink" viewBox="0 0 243.51 243.51"><defs><radialGradient id="aff58399-2830-4632-a333-0b7d587914fe" cx="122.52" cy="121.88" r="120.26" gradientUnits="userSpaceOnUse"><stop offset="0" stop-color="#93278f"/><stop offset="0.32" stop-color="#91278e"/><stop offset="0.49" stop-color="#89258b"/><stop offset="0.63" stop-color="#7b2387"/><stop offset="0.74" stop-color="#682080"/><stop offset="0.85" stop-color="#4f1c77"/><stop offset="0.94" stop-color="#31186c"/><stop offset="1" stop-color="#1b1464"/></radialGradient><linearGradient id="bd9a9c29-af68-4443-8636-1e2110bde22b" x1="128.83" y1="294.15" x2="126.57" y2="82.98" gradientUnits="userSpaceOnUse"><stop offset="0" stop-color="#fcee21"/><stop offset="0.12" stop-color="#f7d428"/><stop offset="0.29" stop-color="#efa933"/><stop offset="0.35" stop-color="#e77d3f"/><stop offset="0.48" stop-color="#d4145a"/><stop offset="0.6" stop-color="#c1272d"/><stop offset="0.75"/></linearGradient><linearGradient id="f79e72b1-fa57-4845-bdb4-49919222ee10" x1="112.19" y1="224.19" x2="97.3" y2="199.14" gradientUnits="userSpaceOnUse"><stop offset="0" stop-color="#fff"/><stop offset="0.74" stop-color="#d67276"/><stop offset="1" stop-color="#c1272d"/></linearGradient><linearGradient id="acdddef4-e98f-4e56-ad76-dd53ff4f2739" x1="131.04" y1="158.34" x2="148.19" y2="195.2" gradientUnits="userSpaceOnUse"><stop offset="0"/><stop offset="1" stop-opacity="0"/></linearGradient><linearGradient id="b0d172ec-5b91-4196-95e1-ba2405735435" x1="95.21" y1="183.59" x2="148.99" y2="299.2" xlink:href="#acdddef4-e98f-4e56-ad76-dd53ff4f2739"/><linearGradient id="abe9fd81-3504-4c83-b822-bc257a7200df" x1="97.35" y1="122.78" x2="124.66" y2="109.64" gradientUnits="userSpaceOnUse"><stop offset="0" stop-color="#fff" stop-opacity="0"/><stop offset="0.03" stop-color="#fff" stop-opacity="0.14"/><stop offset="0.06" stop-color="#fff" stop-opacity="0.32"/><stop offset="0.11" stop-color="#fff" stop-opacity="0.48"/><stop offset="0.15" stop-color="#fff" stop-opacity="0.62"/><stop offset="0.2" stop-color="#fff" stop-opacity="0.74"/><stop offset="0.25" stop-color="#fff" stop-opacity="0.84"/><stop offset="0.31" stop-color="#fff" stop-opacity="0.91"/><stop offset="0.38" stop-color="#fff" stop-opacity="0.96"/><stop offset="0.47" stop-color="#fff" stop-opacity="0.99"/><stop offset="0.65" stop-color="#fff"/></linearGradient><linearGradient id="fb0a0367-6813-4282-b85e-d4b46f7c5511" x1="112.54" y1="113.89" x2="123.17" y2="121.71" gradientUnits="userSpaceOnUse"><stop offset="0"/><stop offset="0.06" stop-color="#090202"/><stop offset="0.16" stop-color="#230708"/><stop offset="0.28" stop-color="#4c0f12"/><stop offset="0.43" stop-color="#851b1f"/><stop offset="0.57" stop-color="#c1272d"/><stop offset="0.87" stop-color="#ff1d25"/><stop offset="0.99" stop-color="#ff1d25"/></linearGradient><linearGradient id="b3ee89b0-41cf-4b71-896f-5e9f65b2a304" x1="111.76" y1="120.1" x2="113.88" y2="116.43" gradientUnits="userSpaceOnUse"><stop offset="0" stop-color="#fff"/><stop offset="0.22" stop-color="#fff" stop-opacity="0.76"/><stop offset="0.6" stop-color="#fff" stop-opacity="0.36"/><stop offset="0.87" stop-color="#fff" stop-opacity="0.1"/><stop offset="1" stop-color="#fff" stop-opacity="0"/></linearGradient><linearGradient id="b2a06c5f-1e29-4942-ba44-9a3de201c96f" x1="113.13" y1="120.96" x2="115.24" y2="117.31" xlink:href="#b3ee89b0-41cf-4b71-896f-5e9f65b2a304"/><linearGradient id="e6214413-bf29-40cb-b691-826bddfe3a48" x1="66.23" y1="125.81" x2="83.23" y2="117.62" gradientTransform="matrix(-1, 0, 0, 1, 149.55, 0)" xlink:href="#abe9fd81-3504-4c83-b822-bc257a7200df"/><linearGradient id="ae8023f0-1b5f-4d5b-8be9-552ccdd4d205" x1="80.06" y1="134.92" x2="86.52" y2="139.68" gradientTransform="matrix(1.17, 0.65, -0.59, 1.06, 61.46, -75.17)" xlink:href="#fb0a0367-6813-4282-b85e-d4b46f7c5511"/><linearGradient id="f19b10e4-15bf-4fa5-ba42-ad7406513b4c" x1="80.64" y1="140.03" x2="81.88" y2="137.89" gradientTransform="translate(31.01 -30.33) rotate(13.91)" xlink:href="#b3ee89b0-41cf-4b71-896f-5e9f65b2a304"/><linearGradient id="a4c7e6a3-8149-476b-8dc1-f4eeb293a7d6" x1="81.45" y1="140.52" x2="82.68" y2="138.4" gradientTransform="translate(31.01 -30.33) rotate(13.91)" xlink:href="#b3ee89b0-41cf-4b71-896f-5e9f65b2a304"/></defs><g id="a9b1ed1d-def1-496d-9482-685decd166e9" data-name="Layer 2"><g id="af9ec453-d9bb-4c4d-9cb0-314894f2d071" data-name="female_human"><g id="ad64b1ee-9047-41a5-bf34-58800ca7b0bc" data-name="Layer 4"><rect x="2.27" y="1.63" width="240.51" height="240.51" style="fill:url(#aff58399-2830-4632-a333-0b7d587914fe)"/></g><g id="a6d97c5c-3893-4813-a303-2aaa4a384603" data-name="costume"><polygon points="216.71 241.84 207.54 222.61 139.37 232.31 138.66 241.84 216.71 241.84" style="fill:#fff"/><path d="M92.14,216.48c.85,4,2.66,16.1,4.1,26h31.82L167,189.64c-3.33.67-5.65,1.07-5.65.8,0-33.45-4.17-52.43-4.17-52.43l-19.06,24.6s-37.43,20.71-49.61,31.74l9.52-.08S90.61,209.33,92.14,216.48Z" style="fill:url(#bd9a9c29-af68-4443-8636-1e2110bde22b)"/><polygon points="229.28 242.18 224.14 218.78 208.56 220.31 206.78 232.82 209.83 242.18 229.28 242.18"/><path d="M110.44,178.61a20.77,20.77,0,0,1,4.85,11.57c.67,5.95,1.36,17.79,1.36,17.79s2-13.28.85-20.43c-.83-5-1.79-11.49-1.79-11.49Z"/><path d="M124.15,241.8c1-2.77,1.93-5.58,2.67-8.2,1.24-4.33,2-8.32,2.8-12.19a93.75,93.75,0,0,1,3.31-13.28c3.41-9.61,7.13-16.22,12-21.43,5.61-5.95,30.83-22.08,37-22.08.47,0,.6.11.6.11h0a.51.51,0,0,1,0,.17c0,6.13-3.33,19.23-3.68,20.58-11,20.89-28.51,52-33.56,56.32Z" style="fill:#fff"/><path d="M181.55,165.64c-.24,6.12-3.16,17.73-3.61,19.47C164.8,210,149.45,236.48,145,240.8H125.57c.83-2.36,1.58-4.71,2.21-6.92,1.25-4.37,2.05-8.39,2.82-12.27a94.88,94.88,0,0,1,3.27-13.14c3.37-9.48,7-16,11.83-21.09,5.27-5.59,29.4-21.09,35.85-21.74m.39-2c-6.71,0-32.17,16.53-37.7,22.39-5.85,6.21-9.44,13.87-12.25,21.79s-3.4,16-6.13,25.53c-1,3.42-2.11,6.71-3.15,9.47h22.38v.35c5.75-2.53,34.73-57.31,34.73-57.31s3.74-14.3,3.74-20.94c0-.88-.59-1.28-1.62-1.28Z"/><path d="M146,242a46,46,0,0,1,.62-11.83c2-10.32,5.77-15,11-21.5,12-14.84,21.78-23,27.63-23.06h.25c5.71,0,8.17,1.82,8.19,1.84l5.25,4.92c-4,3.48-20.93,18.33-23.18,20.35-1.72,1.55-13.83,16.69-23.81,29.28Z" style="fill:#fff"/><path d="M185.46,186.56c4.9,0,7.22,1.39,7.53,1.59l4.43,4.15c-5.12,4.48-20.22,17.7-22.36,19.63-1.43,1.28-9.38,11-23.63,29H146.9a44.3,44.3,0,0,1,.65-10.65c1.94-10.06,5.47-14.43,10.81-21.05l.06-.07c16.43-20.34,24.22-22.59,26.8-22.62h.24m0-2h-.26c-9.32.09-24.14,18.17-28.34,23.37-5.36,6.63-9.23,11.4-11.27,22a47.81,47.81,0,0,0-.56,13h7.36c8.28-10.45,22.22-27.93,24-29.54,2.56-2.29,24-21.06,24-21.06l-6.12-5.74s-2.6-2.05-8.81-2.05Z"/><path d="M154.73,242a42,42,0,0,1,4-8.45c3.19-5.37,8.64-11.56,13.45-17,1.91-2.17,3.72-4.22,5.35-6.17,6-7.17,20-17.22,22.5-18a12.17,12.17,0,0,1,3.69-.67c2.47,0,5.2,1,8.59,3.19a13.19,13.19,0,0,1,6.16,10c-3.38,2.2-23.8,15.54-30.22,20.32-2.54,1.9-8.26,7.53-17,16.74Z" style="fill:#fff"/><path d="M203.69,192.66c2.24,0,4.87,1,8.05,3a12.25,12.25,0,0,1,5.64,8.69c-4.6,3-23.5,15.36-29.76,20-2.56,1.91-8.22,7.47-16.83,16.54H156.14a44.28,44.28,0,0,1,3.42-6.94c3.14-5.29,8.56-11.44,13.34-16.87,1.92-2.17,3.73-4.23,5.37-6.19,5.76-6.89,19.66-16.94,22-17.66a11.15,11.15,0,0,1,3.39-.63m0-2a13.2,13.2,0,0,0-4,.71c-2.93.9-17.1,11.28-23,18.3S162.31,225.46,157.84,233a41.51,41.51,0,0,0-4.47,10h18.28c7.17-7.56,14.21-14.74,17.17-16.94,7-5.23,30.64-20.6,30.64-20.6a14.15,14.15,0,0,0-6.64-11.4c-4-2.59-6.88-3.35-9.13-3.35Z"/><path d="M174.23,241.9a79.9,79.9,0,0,1,10.06-15.4c8.41-9.56,29.94-20.36,33.29-22,4.06,2.07,13.51,7.66,14.92,12.08,1.32,4.13-2.63,13.42-4.94,18-.56-.93-1.33-2.26-2.43-4.15-2.23-3.87-4.2-5.53-6.57-5.53s-4.9,1.77-8.6,4.44c-2.15,1.57-4.6,3.33-7.66,5.2l-8.54,5.23-3.44,2.11Z" style="fill:#fff"/><path d="M217.57,205.61c5.15,2.67,12.84,7.7,14,11.26,1,3.14-1.57,10.31-4.07,15.62-.42-.7-.9-1.54-1.48-2.54-1.72-3-3.95-6-7.44-6-2.78,0-5.47,2-9.18,4.63-2.15,1.55-4.57,3.31-7.6,5.16L193.22,239l-3.18,2H175.89A75.81,75.81,0,0,1,185,227.16c8-9.06,28.08-19.34,32.53-21.55m0-2.24s-24.73,11.87-34.05,22.47A83.19,83.19,0,0,0,172.6,242.9h18c4.08-2.49,8.27-5.08,12.22-7.49,8.16-5,12.31-9.49,15.74-9.49,1.93,0,3.64,1.44,5.71,5,3,5.24,3.82,6.49,3.9,6.49a6.22,6.22,0,0,0-.44-1s7.64-14.17,5.73-20.17-15.87-12.9-15.87-12.9Z"/><path d="M90.88,242l-4.72-8.51-15-18.56c-.35-.62-3-5.71,1.66-9.37a8.55,8.55,0,0,1,5.41-1.89,11.36,11.36,0,0,1,5.28,1.4c.47.45,3.42,3.49,6,9.94,2.15,5.43,2.6,18.82,2.67,27Z" style="fill:#fff"/><path d="M78.25,204.63a10.51,10.51,0,0,1,4.68,1.2,29.06,29.06,0,0,1,5.65,9.51c1.49,3.77,2.41,12.83,2.58,25.07L87.08,233l-.09-.15-.1-.14L72,214.33c-.46-.85-2.4-5,1.45-8a7.56,7.56,0,0,1,4.79-1.68m0-2a9.58,9.58,0,0,0-6,2.1c-5.61,4.43-1.87,10.73-1.87,10.73l15,18.55,5,9h2.9c0-7.86-.44-22.51-2.75-28.35-2.91-7.35-6.3-10.39-6.3-10.39a12.33,12.33,0,0,0-5.89-1.59Z"/><path d="M80.54,242a37.83,37.83,0,0,1-6.75-5.4c-3.73-3.87-10.9-10-12.28-11.12-.93-3-2.43-10.34.67-12.18a7.64,7.64,0,0,1,3.87-1.16,5.42,5.42,0,0,1,2.86.77,48.56,48.56,0,0,1,13.54,13.69A83.94,83.94,0,0,1,89.54,242Z" style="fill:#fff"/><path d="M66.05,213.09a4.37,4.37,0,0,1,2.26.57l.07.05.07,0A47.65,47.65,0,0,1,81.6,227.09,77.83,77.83,0,0,1,88.1,241H80.84a36.89,36.89,0,0,1-6.33-5.09c-3.59-3.73-10.31-9.47-12.13-11-1.13-3.81-1.77-9.51.31-10.75a6.62,6.62,0,0,1,3.36-1m0-2a8.52,8.52,0,0,0-4.38,1.3c-4.6,2.73-1,13.62-1,13.62s8.36,7,12.42,11.23A38.67,38.67,0,0,0,80.25,243H91c-2-5.59-4.76-12.38-7.68-16.94a49.11,49.11,0,0,0-13.79-14,6.22,6.22,0,0,0-3.45-1Z"/><path d="M53.9,242a18.82,18.82,0,0,1-2.3-7.43,9.18,9.18,0,0,1,2-7.58,6.87,6.87,0,0,1,4.45-2.52h1c2.14,0,4.71.6,12.58,7.91a29.34,29.34,0,0,1,6.8,9.63Z" style="fill:#fff"/><path d="M59.13,225.45c1.46,0,3.67,0,11.9,7.64a28,28,0,0,1,5.89,7.9H54.47a19.13,19.13,0,0,1-1.88-6.57,8.19,8.19,0,0,1,1.82-6.78,6,6,0,0,1,3.69-2.18h1m0-2h-1c-2.73,0-8.51,3.74-7.49,11.23.56,4.12,1.6,6.7,2.76,8.3H80a31.11,31.11,0,0,0-7.63-11.36c-8.26-7.67-11-8.18-13.26-8.18Z"/><path d="M89.07,217.24c.54,4.66,1.71,16.95,3.5,24.77h7.74c-1.38-9.67-3.68-31.07,1.79-38.3L115.56,184l-1.21-7S91,190.68,87.12,195.37C81,202.78,84,205.5,84,205.5A24.64,24.64,0,0,1,89.07,217.24Z" style="stroke:#000;stroke-miterlimit:10;stroke-width:2px;fill:url(#f79e72b1-fa57-4845-bdb4-49919222ee10)"/><g id="b5172018-5c9f-4b6c-bc8e-71da5683a050" data-name="Shadows"><path d="M114.44,178.52l-.51-4.25,38.8-25.71s-22.38,26.56-29.53,32.56S114.44,178.52,114.44,178.52Z" style="opacity:0.4;fill:url(#acdddef4-e98f-4e56-ad76-dd53ff4f2739)"/><path d="M99.64,241.5H103c.66-6.45,2-17.44,4.68-25.87,2.76-8.63,8.63-13.1,8.85-14.3,1.87-10.21-2.38-25.53-2.38-25.53l-13.45,9.7s-6.3,6.78-6.3,15.66c0,15,2.38,24,2.38,24Z" style="opacity:0.4;fill:url(#b0d172ec-5b91-4196-95e1-ba2405735435)"/></g><g id="a921942d-fa92-4127-a1a9-4afe22d7aa3a" data-name="shadows" style="opacity:0.2"><path d="M193.72,218.07c-.68,1-10.7,16-14.29,23.81h-9.75C178.53,234,192.76,219.07,193.72,218.07Z"/><path d="M91.12,234.61l1,6.89h-.73c-.75-1.33-1.84-3.26-3-5.3l1.69,5.3H87.94c-.25-1.92-.75-5.29-1.19-8.09a60.93,60.93,0,0,0-4.06-6.21c-2.55-3.06-12.76-14-12.76-14s-1.79-2.81,1.28-6.38S75.55,204,75.55,204s-2.3,6.38,1.78,11.23S91.12,234.61,91.12,234.61Z"/><path d="M85.55,241.5h-7.2s1.79-1.28-5.1-7.15a123.89,123.89,0,0,0-13.53-10l1-8.17,2-3.57S61,219,66.35,223.12C73.23,228.36,81.26,237.82,85.55,241.5Z"/><path d="M182.26,205.78c-.42.77-14,25.49-18.3,36.1H145.13c0-.39,0-.79-.07-1.2l-3.08,1.2H124.64c1.07-3.43,2.27-7.68,3.25-12.12,2.29-10.47,8.42-29.37,13.78-37.54,5.18-7.9,24.92-17.46,26.23-18.08-1.38.9-23.65,15.76-30.57,53.32-1.25,6.8,4.28,10.09,7.69,11.44a34.58,34.58,0,0,1,2.53-14c5.89-13.51,25-32,26.46-33.34-1.18,1.41-13.9,16.73-18,32.07a111,111,0,0,0-2.9,18C157.44,231.09,181.65,206.39,182.26,205.78Z"/><path d="M67.5,241.5h-14A45,45,0,0,1,51,233.84l2.73-5.13a7.1,7.1,0,0,0-.17,4.62C54.6,236.36,62.05,239.33,67.5,241.5Z"/><polygon points="206.52 232.99 196.63 241.88 190.59 241.88 196.14 238.78 206.52 232.99"/></g></g><g id="b545e810-0da0-46cb-ab60-01ec18acf09f" data-name="head"><g id="f1f95d96-3606-4881-a2c5-17674202a229" data-name="Face"><path id="bf124081-385d-45ff-84cc-af08e6b62719" data-name="FACE_SKIN_COLOR" d="M60.05,108.54s7,19,8,22,1,10,3,21,22,28,25,30,23.91-3.89,46-23c37-32,17-76,17-76s-38-30-70-23S60.05,108.54,60.05,108.54Z" style="stroke:#000;stroke-miterlimit:10;stroke-width:2px" class="skin-color"/><path id="f2fe9e01-3d32-43b1-a5e7-956cb065aee2" data-name="face_shadow" d="M100.18,176.65c-2,.24-24.25-13.28-25.15-34,0-.85,10.85,2.55,10.85,2.55L76,138s5.93-7.75,6.9-11.4c1.19-4.51-1.17-7.51-3-12.26C79.07,112.08,73,104,72.88,95.59c-.23-12.44,5.87-26.67,5.87-32.24C58,76.1,60.24,108.19,60.24,108.19s6.82,18.34,7.83,21.33c1.45,4.26,1.92,11.32,3.24,23.22,1,8.65,21.81,26.78,26,28.76,3.26,1.53,26.81-5.62,44.21-23.74.47-.49,12.75-12.84,13.24-13.28-7.15,5.62-18.58,14.62-30,21.79C115,172.43,107,175.86,100.18,176.65Z" style="opacity:0.30000000000000004"/></g><g id="b2f61b87-c58a-4c7b-af4b-0af5ccc70c78" data-name="r_eye"><path d="M97.63,100.56a21.11,21.11,0,0,0-4.22,10.6c-.63,7.28,1.9,11.25,1.9,11.25l6.66-10,25.4-8.64,5.75-6.43s-14.56-3.57-23.75-1.53S97.63,100.56,97.63,100.56Z" style="opacity:0.1"/><path d="M96,121.2l3.11-8.53s17-4,22-7l5-3s-.43,11.65-2,14c-2,3-4,5-8,6s-5.47,1.51-9.47,1.51a28.79,28.79,0,0,1-6.79-.91A10.86,10.86,0,0,1,96,121.2Z" style="fill:url(#abe9fd81-3504-4c83-b822-bc257a7200df)"/><path id="af3268fd-f51d-440d-a74f-50533665c458" data-name="R_EYE_GRADIENT" d="M122.84,115.37c0,3.32-4.66,6.3-8.4,7.15-3.58.81-5.62-3.79-5.62-7.11s3.27-6,6.94-6S122.84,112.06,122.84,115.37Z" style="stroke:#000;stroke-miterlimit:10;stroke-width:2px;fill:url(#fb0a0367-6813-4282-b85e-d4b46f7c5511)"/><path d="M116.81,118.49a3.68,3.68,0,0,1-4.67-2.25c-.81-2-.53-4.8,1.23-5.53s4.36.92,5.17,2.89A3.68,3.68,0,0,1,116.81,118.49Z"/><path d="M118.81,113.45a2.58,2.58,0,0,1-3,.18c-.7-.55-.34-1.72.21-2.43s1.85-.38,2.56.17A1.39,1.39,0,0,1,118.81,113.45Z" style="fill:#f2f2f2;opacity:0.8"/><path d="M114.22,116.63l-2.74,2.86a1.51,1.51,0,0,0,.26.47,1.23,1.23,0,0,0,.5.41Z" style="fill:url(#b3ee89b0-41cf-4b71-896f-5e9f65b2a304)"/><path d="M114.48,116.87l-1.52,3.9a.85.85,0,0,0,.53.34,1.79,1.79,0,0,0,.56,0Z" style="fill:url(#b2a06c5f-1e29-4942-ba44-9a3de201c96f)"/><path d="M97.12,115.67l-1.27,5.48-.23,1s3-6,8-8,2.5-.5,14.5-5.5c6.43-2.68,6-2,6-2a11.3,11.3,0,0,1,0,6c-4,13-23.27,10.81-23.27,10.81s20.27,5.19,27.77-11.31c1.85-4.07-.5-12.5-.5-12.5s-13,7-19,9a52.75,52.75,0,0,1-11,2Z"/></g><g id="f9b71b19-9452-4ede-b03d-7d5d4e21636b" data-name="eyebrows"><path d="M112.12,93.67c-11,0-22,11-22,11l.5,6.5s9.4-10,18.5-12.5a64.64,64.64,0,0,1,21-2S123.12,93.67,112.12,93.67Z" style="fill:#1b1464;stroke:#000;stroke-miterlimit:10"/><path d="M63.62,105.17c-4,1-2,7-2,7s-1-3,3-3,14,4,14,4l-3-6S67.62,104.17,63.62,105.17Z" style="fill:#1b1464;stroke:#000;stroke-miterlimit:10"/></g><g id="b9dcbae0-e87c-43ee-9400-7bb0cc46f271" data-name="l_eye"><path d="M83.63,125.93l-2.73-7.66s-9.17-1.23-12.32-3.12l-3.15-1.89s1.21,7.27,2.2,8.75c1.26,1.89,1.65,3.88,4.17,4.51a16.25,16.25,0,0,0,5.44.77c1.44,0,3-.66,4.73-1.06A13.1,13.1,0,0,1,83.63,125.93Z" style="fill:url(#e6214413-bf29-40cb-b691-826bddfe3a48)"/><g id="b13c58f3-b886-4e1d-a5ea-ef7afd450ea4" data-name="L_EYE_GRADIENT"><path d="M76.78,126.83c-.8,0-1.44-.76-1.84-1.4-1.25-2-1.81-5.48-1.12-6.9a2,2,0,0,1,2-1.16,9.91,9.91,0,0,1,3.88,1.15,5.18,5.18,0,0,1,2.66,3.79,3.79,3.79,0,0,1-.4,3.08C81.08,126.35,79.35,126.83,76.78,126.83Z" style="fill:url(#ae8023f0-1b5f-4d5b-8be9-552ccdd4d205)"/><path d="M75.8,117.87h0a9.4,9.4,0,0,1,3.67,1.1,4.83,4.83,0,0,1,2.38,3.44,3.33,3.33,0,0,1-.29,2.65c-.75.84-2.36,1.27-4.78,1.27-.6,0-1.15-.73-1.42-1.16-1.22-2-1.65-5.28-1.09-6.42a1.49,1.49,0,0,1,1.53-.88m0-1a2.48,2.48,0,0,0-2.43,1.44c-1.1,2.27.58,9,3.41,9s4.64-.61,5.53-1.6c1.39-1.55.58-6.27-2.41-7.67a10.6,10.6,0,0,0-4.1-1.19Z"/></g><path d="M78,124.83c-1.43-.19-2.82-2.62-2.67-4.11s1.68-2.07,3.11-1.88S81,121,80.84,122.46A2.59,2.59,0,0,1,78,124.83Z"/><path d="M80.43,121.63a1.32,1.32,0,0,1-1.36-.63c-.18-.41.27-.83.69-1s.92.28,1.09.69A.68.68,0,0,1,80.43,121.63Z" style="fill:#f2f2f2;opacity:0.8"/><path d="M77.52,123.37l-2,1.23a.92.92,0,0,0,.08.3.79.79,0,0,0,.23.3Z" style="fill:url(#f19b10e4-15bf-4fa5-ba42-ad7406513b4c)"/><path d="M77.64,123.54l-1.43,2a.51.51,0,0,0,.25.26,1.06,1.06,0,0,0,.32.08Z" style="fill:url(#a4c7e6a3-8149-476b-8dc1-f4eeb293a7d6)"/><path d="M63.05,112.22s5.61,1.59,9.77,2.81c7.23,2.13,7.83.66,7.83.66l2.15,6.15s-2.32-3.48-9.47-4.43c-5.49-.72-5.83-.51-5.83-.51s.43,7.26,6.38,9.39c2.56.91,4,.57,6.09,0a9.1,9.1,0,0,0,3.1-1.24s-.53,3.05-8.74,2.62c-5.37-.28-6.19-2.87-8-7.3Z"/></g><path id="b0bdb435-f578-4f45-8103-e85f0bd7d30e" data-name="nose" d="M80.93,116.61s3.34,7.57.61,12.17a82.17,82.17,0,0,1-6.7,9.32l11.23,7.34-8-7.92s5.43-8,5.57-10.83C83.86,123,80.93,116.61,80.93,116.61Z"/><path id="f693d61e-54ec-4dbe-8cd9-469bbec32f13" data-name="mouth" d="M84.41,155.71c-1.14-.9-1.09-1.66.35-1.87.95-.14,2.21.1,3.31,0,5.62-.51,16.69-2.89,20.86-.17s.14,1.36.14,1.36-1.93-1.36-8.57-.93-9.89,2.34-11.66,2.8A5.08,5.08,0,0,1,84.41,155.71Z"/><g id="b07d490a-4a66-4f12-ace1-768c4a84e4d1" data-name="HAIR_BG_COLOR"><path d="M198.48,105c-2.53-19.71-1.32-32.51-9.32-48.51-10-20.1-24.4-33.47-47.23-36.89-20-3-73.05,9-86.05,49-5.75,17.71-1.63,46.25-.51,74,1.52,37.47,1.79,58.6,1.79,58.6L62,183.12l3.43,20.59S69,196.37,73,193.37s30-12.25,30-12.25l-6.55.64c-5.4-1.95-23.51-18-25.45-30.64-2-13,0-15-4-25s-6-14.19-6-14.19l20.55,5.61a163.87,163.87,0,0,0,16.73-9.32c9.6-6,14.17-7.15,14.17-7.15,3.5-.35,9.77-1.25,11.49.9.7.87,6.52,9.32,9.7,29.1,4.37,27.2,2.93,62.56,2.93,62.56l7.66-25.15,2.56,13.79,3.57-13.41,2,15.7,52.73-32S201.64,129.7,198.48,105Z" class='hair-color'/></g><g style="opacity:0.30000000000000004"><path d="M96.9,181.76l-.59-.26c-5.4-1.95-24.7-18.64-26.64-31.23-2-13-.17-14.6-4.17-24.6s-5.45-15-5.45-15l20.38,7C77,111.69,76,102.59,73.76,81,69.16,36.48,107.71,26.52,108,24,66.35,39.29,59.19,57.49,56.39,67.37c-5,17.71-.72,47-1,74.81-.37,35.43,2.19,48,1.53,63.7l5.62-27.95,4,22.21a19.68,19.68,0,0,1,5.74-6.9c3.25-2.43,18.88-8.31,24.66-10.44C97.84,182.45,97.69,182.41,96.9,181.76Z"/></g><path id="ae55358c-4e0d-4a7d-8d89-07996707fa34" data-name="HIGHLIGHTS" d="M181.44,45.17l-5.23-3.48,1.15,10.37-9.78-8.93v3.46L164.7,44l.86,8.06L151.74,40.54a119.38,119.38,0,0,1,5.33,15.4,75.09,75.09,0,0,1,2.3,11.37L146.85,54.94,150.31,63l-8.45-9.1s3.27,5.75,4.13,8.81c.91,3.26.57,4.6.57,4.6l-9.78-9.5s.28,3.17.57,6.91.29,8.93.29,8.93-2.86-.53-5.47-4.61A41.13,41.13,0,0,1,129,62.71L127.56,80l3.17-8.06s.29.86,3.45,2.88A37.28,37.28,0,0,0,140.52,78l.29-12.38,9.78,5.75-1.44-6.62,12.53,9.07s1.87-7.63.43-13.38a53.47,53.47,0,0,0-4-10.66,30.8,30.8,0,0,1,7.19,7.49,20.82,20.82,0,0,1,3.17,7.48l-.29-14.1A19.93,19.93,0,0,1,174.77,57a48.3,48.3,0,0,1,4.9,9.21l1.58-12.52s8,7.27,11.66,11.52C196.37,69.15,181.44,45.17,181.44,45.17Z" style="fill:#fff;opacity:0.35000000000000003"/><path d="M59.76,112.27a57.88,57.88,0,0,1-2.48-7.66c-1.08-4.34-1.35-12.26-1.35-12.26s1.06,8.43,2.59,12.26a62.57,62.57,0,0,0,4.26,8.21Z"/><path d="M78.54,117.07s-1.18-3.94-2.4-9.31a136.81,136.81,0,0,1-1.92-15.37s1.47,10.44,3.19,15.19,4.39,10.18,4.39,10.18Z"/><path d="M111.59,76.56s8.74,18.64,12,25c1.56,3,6.8,17.36,6.8,17.36l.73-.95a140.22,140.22,0,0,0-5.81-17.37C122.19,93.51,111.59,76.56,111.59,76.56Z"/><g id="a8c39e67-daad-49ed-9a26-68c7fc85d0ae" data-name="hair"><path d="M135.43,20.72a42.66,42.66,0,0,1,6.33.42c20.77,3.11,36,14.86,46.51,35.91,5.62,11.24,6.38,21,7.35,33.24.37,4.74.75,9.64,1.46,15.12,2.7,21.11,5.94,41.46,6.79,46.75l-51.05,31.56-.77-10.7L151,157.56l-2.86,15.23-.91,4.9L146,170.83l-1.49-8.94-2.41,8.74L138,185.8c-.28-14.72-1.16-37.82-3.92-55-3.35-20.87-8.8-28.17-9.41-28.93-1.57-2-4.25-2.19-6.13-2.19a43.87,43.87,0,0,0-4.52.33l-1.11.12h-.12l-.11,0c-.19,0-4.85,1.11-14.63,7.26-7.73,4.85-14.09,8.39-16.16,9.53l-19.21-5.76-3.69-1.1,1.22,3.65c0,.13,1.07,3.17,5,13.11A34.69,34.69,0,0,1,68,140.19a105.16,105.16,0,0,0,1.11,11.27c1.94,12.59,19.07,27.09,26.26,30.75-8.67,3.63-21.65,9.23-24.48,11.35a19.09,19.09,0,0,0-4.72,6.1L64,182.91,62.45,170.2l-2.36,12.59-2.41,12.86c-.3-13.57-.82-32.72-1.62-52.57-.25-6-.61-12.23-1-18.21C53.79,103,52.57,82.29,57,68.78c6.33-19.46,22.43-30.92,34.82-37.11,16.17-8.07,33.15-11,43.65-11m0-2c-23.36,0-68.62,13.28-80.37,49.44-5.76,17.71-2.13,47.21-1,75,1.52,37.46,2,72,2,72l6-32,3,24s3-9,7-12,31.78-14.3,31.78-14.3l-6.43.09C92,179,73,163.76,71.06,151.16c-2-13,0-15-4-25s-5-13-5-13l20,6s7.39-4,17-10,14-7,14-7c1.68-.17,3.65-.44,5.43-.44,2,0,3.67.32,4.57,1.44.7.88,5.82,8.21,9,28,4.37,27.19,4,69,4,69l8-29,3,18,3-16,1,14,55-34s-3.84-23.33-7-48c-2.52-19.71-1-33-9-49-10.05-20.1-25.17-33.58-48-37a45.07,45.07,0,0,0-6.63-.44Z"/></g></g><g id="a8078837-6c7d-4d8f-92b7-f5d246adc216" data-name="border"><rect x="1.5" y="1.5" width="240.51" height="240.51" style="fill:none;stroke:#000;stroke-miterlimit:10;stroke-width:3px"/></g></g></g></svg>