<?xml version="1.0" encoding="UTF-8" standalone="no"?>
<!-- Created with Inkscape (http://www.inkscape.org/) -->

<svg
   xmlns:dc="http://purl.org/dc/elements/1.1/"
   xmlns:cc="http://creativecommons.org/ns#"
   xmlns:rdf="http://www.w3.org/1999/02/22-rdf-syntax-ns#"
   xmlns:svg="http://www.w3.org/2000/svg"
   xmlns="http://www.w3.org/2000/svg"
   xmlns:xlink="http://www.w3.org/1999/xlink"
   xmlns:sodipodi="http://sodipodi.sourceforge.net/DTD/sodipodi-0.dtd"
   xmlns:inkscape="http://www.inkscape.org/namespaces/inkscape"
   height="611.41895"
   id="svg2"
   inkscape:version="0.48.2 r9819"
   sodipodi:docname="Venus_dan_gerhards_01.svg"
   sodipodi:version="0.32"
   width="613.00342"
   version="1.1">
  <defs
     id="defs4">
    <linearGradient
       id="linearGradient7777">
      <stop
         id="stop7779"
         offset="0.0000000"
         style="stop-color:#ffffff;stop-opacity:0.46391755;" />
      <stop
         id="stop7783"
         offset="0.50000000"
         style="stop-color:#91918f;stop-opacity:0.0000000;" />
      <stop
         id="stop7785"
         offset="0.68971896"
         style="stop-color:#5a5a57;stop-opacity:0.19587630;" />
      <stop
         id="stop7787"
         offset="0.86538464"
         style="stop-color:#3f3e3b;stop-opacity:0.45360824;" />
      <stop
         id="stop7781"
         offset="1.0000000"
         style="stop-color:#171715;stop-opacity:0.74226797;" />
    </linearGradient>
    <linearGradient
       id="linearGradient6023">
      <stop
         id="stop6025"
         offset="0.0000000"
         style="stop-color:#dfba49;stop-opacity:1.0000000;" />
      <stop
         id="stop6027"
         offset="1.0000000"
         style="stop-color:#e4c873;stop-opacity:0.65306121;" />
    </linearGradient>
    <linearGradient
       id="linearGradient5931">
      <stop
         id="stop5933"
         offset="0.0000000"
         style="stop-color:#daa02f;stop-opacity:0.44705883;" />
      <stop
         id="stop5935"
         offset="1.0000000"
         style="stop-color:#bc9624;stop-opacity:0.29591838;" />
    </linearGradient>
    <linearGradient
       id="linearGradient5914">
      <stop
         id="stop5916"
         offset="0.0000000"
         style="stop-color:#d9ab26;stop-opacity:1.0000000;" />
      <stop
         id="stop5918"
         offset="1.0000000"
         style="stop-color:#d2a028;stop-opacity:0.65490198;" />
    </linearGradient>
    <linearGradient
       id="linearGradient4436">
      <stop
         id="stop4438"
         offset="0.0000000"
         style="stop-color:#cc9223;stop-opacity:0.77647060;" />
      <stop
         id="stop4440"
         offset="1.0000000"
         style="stop-color:#c29e33;stop-opacity:0.52941179;" />
    </linearGradient>
    <linearGradient
       id="linearGradient4418">
      <stop
         id="stop4420"
         offset="0.0000000"
         style="stop-color:#e2c05b;stop-opacity:1.0000000;" />
      <stop
         id="stop4422"
         offset="1.0000000"
         style="stop-color:#e4c873;stop-opacity:0.65306121;" />
    </linearGradient>
    <linearGradient
       id="linearGradient4347">
      <stop
         id="stop4349"
         offset="0.0000000"
         style="stop-color:#f7eed4;stop-opacity:1.0000000;" />
      <stop
         id="stop4351"
         offset="1"
         style="stop-color:#f8f1dc;stop-opacity:0;" />
    </linearGradient>
    <linearGradient
       id="linearGradient4322">
      <stop
         id="stop4324"
         offset="0.0000000"
         style="stop-color:#ffffff;stop-opacity:1.0000000;" />
      <stop
         id="stop4326"
         offset="1"
         style="stop-color:#f8f1dc;stop-opacity:0;" />
    </linearGradient>
    <radialGradient
       cx="566.5874"
       cy="1112.5737"
       fx="566.5874"
       fy="1112.5737"
       gradientTransform="matrix(0.321661,0.602103,-0.516262,0.275802,958.7179,-281.828)"
       gradientUnits="userSpaceOnUse"
       id="radialGradient4331"
       inkscape:collect="always"
       r="207.65598"
       xlink:href="#linearGradient4322" />
    <radialGradient
       cx="336.27261"
       cy="122.71932"
       fx="336.27261"
       fy="122.71932"
       gradientTransform="matrix(1.505209,-0.323589,0.05287274,0.245942,-176.3762,201.3517)"
       gradientUnits="userSpaceOnUse"
       id="radialGradient4333"
       inkscape:collect="always"
       r="207.65598"
       xlink:href="#linearGradient4322" />
    <radialGradient
       cx="307.26144"
       cy="801.80664"
       fx="307.26144"
       fy="801.80664"
       gradientTransform="matrix(1.310467,-0.288056,0.159009,0.72339,-223.1215,-199.4319)"
       gradientUnits="userSpaceOnUse"
       id="radialGradient4339"
       inkscape:collect="always"
       r="207.65598"
       xlink:href="#linearGradient4322" />
    <radialGradient
       cx="273.41547"
       cy="1176.9749"
       fx="273.41547"
       fy="1176.9749"
       gradientTransform="matrix(0.244022,0.0326846,-0.01365773,0.101968,222.771,253.0544)"
       gradientUnits="userSpaceOnUse"
       id="radialGradient4341"
       inkscape:collect="always"
       r="207.65598"
       xlink:href="#linearGradient4322" />
    <radialGradient
       cx="194.12976"
       cy="1632.9476"
       fx="194.12976"
       fy="1632.9476"
       gradientTransform="matrix(1.767119,0.380124,-0.143843,0.668695,85.96779,-671.5904)"
       gradientUnits="userSpaceOnUse"
       id="radialGradient4343"
       inkscape:collect="always"
       r="207.65598"
       xlink:href="#linearGradient4322" />
    <radialGradient
       cx="260.61557"
       cy="1995.5389"
       fx="260.61557"
       fy="1995.5389"
       gradientTransform="matrix(1.008901,0.278994,-0.06590188,0.238314,124.8449,31.64674)"
       gradientUnits="userSpaceOnUse"
       id="radialGradient4345"
       inkscape:collect="always"
       r="207.65598"
       xlink:href="#linearGradient4347" />
    <radialGradient
       cx="48.570953"
       cy="1501.6678"
       fx="48.570953"
       fy="1501.6678"
       gradientTransform="matrix(0.839444,-0.254133,0.07350131,0.242787,-37.73429,-80.89279)"
       gradientUnits="userSpaceOnUse"
       id="radialGradient4353"
       inkscape:collect="always"
       r="207.65598"
       xlink:href="#linearGradient4347" />
    <radialGradient
       cx="418.47516"
       cy="1807.3854"
       fx="418.47516"
       fy="1807.3854"
       gradientTransform="matrix(0.438649,0.04097118,-0.03858412,0.413089,324.5856,-225.2632)"
       gradientUnits="userSpaceOnUse"
       id="radialGradient4355"
       inkscape:collect="always"
       r="207.65598"
       xlink:href="#linearGradient4347" />
    <radialGradient
       cx="423.63354"
       cy="1287.8252"
       fx="423.63354"
       fy="1287.8252"
       gradientTransform="matrix(0.299159,-0.05584989,0.02367693,0.126825,365.4732,128.11)"
       gradientUnits="userSpaceOnUse"
       id="radialGradient4412"
       inkscape:collect="always"
       r="207.65598"
       xlink:href="#linearGradient4347" />
    <radialGradient
       cx="393.96121"
       cy="1548.5298"
       fx="393.96121"
       fy="1548.5298"
       gradientTransform="matrix(0.154171,0.01542934,-0.05388742,0.538446,476.8363,-444.9566)"
       gradientUnits="userSpaceOnUse"
       id="radialGradient4414"
       inkscape:collect="always"
       r="207.65598"
       xlink:href="#linearGradient4347" />
    <radialGradient
       cx="771.3219"
       cy="1448.4443"
       fx="771.3219"
       fy="1448.4443"
       gradientTransform="matrix(0.03094837,0.03314703,-0.151999,0.141917,713.9893,115.7276)"
       gradientUnits="userSpaceOnUse"
       id="radialGradient4416"
       inkscape:collect="always"
       r="207.65598"
       xlink:href="#linearGradient4347" />
    <radialGradient
       cx="374.82452"
       cy="1533.6655"
       fx="374.82452"
       fy="1533.6655"
       gradientTransform="matrix(0.843856,0.652145,-0.939011,1.215055,1574.388,-1731.229)"
       gradientUnits="userSpaceOnUse"
       id="radialGradient4424"
       inkscape:collect="always"
       r="207.65598"
       xlink:href="#linearGradient6023" />
    <radialGradient
       cx="158.98811"
       cy="1406.5156"
       fx="158.98811"
       fy="1406.5156"
       gradientTransform="matrix(0.01092406,0.124507,-0.749642,0.06577231,1401.774,79.75977)"
       gradientUnits="userSpaceOnUse"
       id="radialGradient4426"
       inkscape:collect="always"
       r="207.65598"
       xlink:href="#linearGradient4418" />
    <radialGradient
       cx="678.49969"
       cy="1448.1531"
       fx="678.49969"
       fy="1448.1531"
       gradientTransform="matrix(0.02381204,0.122696,-0.722124,0.140145,1353.179,-26.71438)"
       gradientUnits="userSpaceOnUse"
       id="radialGradient4428"
       inkscape:collect="always"
       r="207.65598"
       xlink:href="#linearGradient4418" />
    <radialGradient
       cx="1969.1726"
       cy="1585.348"
       fx="1969.1726"
       fy="1585.348"
       gradientTransform="matrix(0.122801,0.02326305,-0.02093068,0.110489,26.20736,208.2349)"
       gradientUnits="userSpaceOnUse"
       id="radialGradient4430"
       inkscape:collect="always"
       r="207.65598"
       xlink:href="#linearGradient4418" />
    <radialGradient
       cx="1641.7333"
       cy="1760.1962"
       fx="1641.7333"
       fy="1760.1962"
       gradientTransform="matrix(0.122801,0.02326305,-0.02093068,0.110489,26.20736,208.2349)"
       gradientUnits="userSpaceOnUse"
       id="radialGradient4432"
       inkscape:collect="always"
       r="207.65598"
       xlink:href="#linearGradient4418" />
    <radialGradient
       cx="3351.6338"
       cy="1456.2902"
       fx="3351.6338"
       fy="1456.2902"
       gradientTransform="matrix(0.122801,0.02326305,-0.02093068,0.110489,26.20736,208.2349)"
       gradientUnits="userSpaceOnUse"
       id="radialGradient4434"
       inkscape:collect="always"
       r="207.65598"
       xlink:href="#linearGradient4436" />
    <radialGradient
       cx="2793.856"
       cy="1289.2784"
       fx="2793.856"
       fy="1289.2784"
       gradientTransform="matrix(0.122801,0.02326305,-0.02093068,0.110489,26.20736,208.2349)"
       gradientUnits="userSpaceOnUse"
       id="radialGradient4442"
       inkscape:collect="always"
       r="207.65598"
       xlink:href="#linearGradient4436" />
    <radialGradient
       cx="3383.3589"
       cy="72.615036"
       fx="3383.3589"
       fy="72.615036"
       gradientTransform="matrix(0.397726,-0.09336652,0.01165638,0.04965408,-906.33,607.2522)"
       gradientUnits="userSpaceOnUse"
       id="radialGradient4444"
       inkscape:collect="always"
       r="207.65598"
       xlink:href="#linearGradient4436" />
    <radialGradient
       cx="4795.043"
       cy="-728.98163"
       fx="4795.043"
       fy="-728.98163"
       gradientTransform="matrix(0.153759,-0.06062851,0.04125068,0.104615,-76.90753,606.2165)"
       gradientUnits="userSpaceOnUse"
       id="radialGradient4446"
       inkscape:collect="always"
       r="207.65598"
       xlink:href="#linearGradient4436" />
    <radialGradient
       cx="4144.9312"
       cy="1670.6855"
       fx="4144.9312"
       fy="1670.6855"
       gradientTransform="matrix(0.105022,0.01451579,-0.01036425,0.07245137,78.67695,305.2352)"
       gradientUnits="userSpaceOnUse"
       id="radialGradient4448"
       inkscape:collect="always"
       r="207.65598"
       xlink:href="#linearGradient4436" />
    <radialGradient
       cx="5263.6245"
       cy="484.8938"
       fx="5263.6245"
       fy="484.8938"
       gradientTransform="matrix(0.01306962,-0.351766,0.09258122,0.00343974,550.9936,2241.009)"
       gradientUnits="userSpaceOnUse"
       id="radialGradient4450"
       inkscape:collect="always"
       r="207.65598"
       xlink:href="#linearGradient4436" />
    <radialGradient
       cx="3020.4219"
       cy="1497.6819"
       fx="3020.4219"
       fy="1497.6819"
       gradientTransform="matrix(-0.01174024,0.124536,-0.934797,-0.08812592,1779.079,309.6059)"
       gradientUnits="userSpaceOnUse"
       id="radialGradient5906"
       inkscape:collect="always"
       r="207.65598"
       xlink:href="#linearGradient4418" />
    <radialGradient
       cx="3315.8777"
       cy="3110.4795"
       fx="3315.8777"
       fy="3110.4795"
       gradientTransform="matrix(0.642014,0.223057,-0.03392673,0.09764972,-1574.569,-591.2604)"
       gradientUnits="userSpaceOnUse"
       id="radialGradient5929"
       inkscape:collect="always"
       r="207.65598"
       xlink:href="#linearGradient5931" />
    <radialGradient
       cx="3315.8777"
       cy="3110.4795"
       fx="3315.8777"
       fy="3110.4795"
       gradientTransform="matrix(0.642014,0.223057,-0.03392673,0.09764972,-1574.569,-591.2604)"
       gradientUnits="userSpaceOnUse"
       id="radialGradient5938"
       inkscape:collect="always"
       r="207.65598"
       xlink:href="#linearGradient5931" />
    <radialGradient
       cx="3383.3589"
       cy="72.615036"
       fx="3383.3589"
       fy="72.615036"
       gradientTransform="matrix(0.397726,-0.09336652,0.01165638,0.04965408,-906.33,607.2522)"
       gradientUnits="userSpaceOnUse"
       id="radialGradient5940"
       inkscape:collect="always"
       r="207.65598"
       xlink:href="#linearGradient4436" />
    <radialGradient
       cx="3383.3589"
       cy="72.615036"
       fx="3383.3589"
       fy="72.615036"
       gradientTransform="matrix(0.397726,-0.09336652,0.01165638,0.04965408,-906.33,607.2522)"
       gradientUnits="userSpaceOnUse"
       id="radialGradient5943"
       inkscape:collect="always"
       r="207.65598"
       xlink:href="#linearGradient4436" />
    <radialGradient
       cx="3351.6338"
       cy="1456.2902"
       fx="3351.6338"
       fy="1456.2902"
       gradientTransform="matrix(0.122801,0.02326305,-0.02093068,0.110489,26.20736,208.2349)"
       gradientUnits="userSpaceOnUse"
       id="radialGradient5950"
       inkscape:collect="always"
       r="207.65598"
       xlink:href="#linearGradient4436" />
    <radialGradient
       cx="3351.6338"
       cy="1456.2902"
       fx="3351.6338"
       fy="1456.2902"
       gradientTransform="matrix(0.122801,0.02326305,-0.02093068,0.110489,26.20736,208.2349)"
       gradientUnits="userSpaceOnUse"
       id="radialGradient5953"
       inkscape:collect="always"
       r="207.65598"
       xlink:href="#linearGradient4436" />
    <radialGradient
       cx="3351.6338"
       cy="1456.2902"
       fx="3351.6338"
       fy="1456.2902"
       gradientTransform="matrix(0.122801,0.02326305,-0.02093068,0.110489,26.20736,208.2349)"
       gradientUnits="userSpaceOnUse"
       id="radialGradient5956"
       inkscape:collect="always"
       r="207.65598"
       xlink:href="#linearGradient4436" />
    <radialGradient
       cx="3351.6338"
       cy="1456.2902"
       fx="3351.6338"
       fy="1456.2902"
       gradientTransform="matrix(0.122801,0.02326305,-0.02093068,0.110489,26.20736,208.2349)"
       gradientUnits="userSpaceOnUse"
       id="radialGradient5959"
       inkscape:collect="always"
       r="207.65598"
       xlink:href="#linearGradient4436" />
    <radialGradient
       cx="3351.6338"
       cy="1456.2902"
       fx="3351.6338"
       fy="1456.2902"
       gradientTransform="matrix(0.122801,0.02326305,-0.02093068,0.110489,26.20736,208.2349)"
       gradientUnits="userSpaceOnUse"
       id="radialGradient5962"
       inkscape:collect="always"
       r="207.65598"
       xlink:href="#linearGradient4436" />
    <radialGradient
       cx="3351.6338"
       cy="1456.2902"
       fx="3351.6338"
       fy="1456.2902"
       gradientTransform="matrix(0.122801,0.02326305,-0.02093068,0.110489,26.20736,208.2349)"
       gradientUnits="userSpaceOnUse"
       id="radialGradient5965"
       inkscape:collect="always"
       r="207.65598"
       xlink:href="#linearGradient4436" />
    <radialGradient
       cx="3351.6338"
       cy="1456.2902"
       fx="3351.6338"
       fy="1456.2902"
       gradientTransform="matrix(0.122801,0.02326305,-0.02093068,0.110489,26.20736,208.2349)"
       gradientUnits="userSpaceOnUse"
       id="radialGradient5968"
       inkscape:collect="always"
       r="207.65598"
       xlink:href="#linearGradient4436" />
    <radialGradient
       cx="3351.6338"
       cy="1456.2902"
       fx="3351.6338"
       fy="1456.2902"
       gradientTransform="matrix(0.122801,0.02326305,-0.02093068,0.110489,26.20736,208.2349)"
       gradientUnits="userSpaceOnUse"
       id="radialGradient5971"
       inkscape:collect="always"
       r="207.65598"
       xlink:href="#linearGradient4436" />
    <radialGradient
       cx="5263.6245"
       cy="484.8938"
       fx="5263.6245"
       fy="484.8938"
       gradientTransform="matrix(0.01306962,-0.351766,0.09258122,0.00343974,550.9936,2241.009)"
       gradientUnits="userSpaceOnUse"
       id="radialGradient6002"
       inkscape:collect="always"
       r="207.65598"
       xlink:href="#linearGradient4436" />
    <radialGradient
       cx="3020.4219"
       cy="1497.6819"
       fx="3020.4219"
       fy="1497.6819"
       gradientTransform="matrix(-0.01174024,0.124536,-0.934797,-0.08812592,1779.079,309.6059)"
       gradientUnits="userSpaceOnUse"
       id="radialGradient6005"
       inkscape:collect="always"
       r="207.65598"
       xlink:href="#linearGradient4418" />
    <radialGradient
       cx="3020.4219"
       cy="1497.6819"
       fx="3020.4219"
       fy="1497.6819"
       gradientTransform="matrix(-0.01174024,0.124536,-0.934797,-0.08812592,1779.079,309.6059)"
       gradientUnits="userSpaceOnUse"
       id="radialGradient6008"
       inkscape:collect="always"
       r="207.65598"
       xlink:href="#linearGradient4418" />
    <radialGradient
       cx="501.55704"
       cy="1501.5052"
       fx="501.55704"
       fy="1501.5052"
       gradientTransform="matrix(0.126472,0.05570594,-0.09438445,0.214285,665.9857,70.58062)"
       gradientUnits="userSpaceOnUse"
       id="radialGradient6012"
       inkscape:collect="always"
       r="207.65598"
       xlink:href="#linearGradient4418" />
    <radialGradient
       cx="3420.9866"
       cy="1146.8718"
       fx="3420.9866"
       fy="1146.8718"
       gradientTransform="matrix(0.349515,-0.19872,0.07381132,0.129821,-698.7382,817.3251)"
       gradientUnits="userSpaceOnUse"
       id="radialGradient6017"
       inkscape:collect="always"
       r="207.65598"
       xlink:href="#linearGradient5931" />
    <radialGradient
       cx="3351.6338"
       cy="1456.2902"
       fx="3351.6338"
       fy="1456.2902"
       gradientTransform="matrix(0.171072,-0.0089215,0.00802702,0.15392,-177.6446,252.5097)"
       gradientUnits="userSpaceOnUse"
       id="radialGradient6019"
       inkscape:collect="always"
       r="207.65598"
       xlink:href="#linearGradient4436" />
    <radialGradient
       cx="2793.856"
       cy="1289.2784"
       fx="2793.856"
       fy="1289.2784"
       gradientTransform="matrix(0.161261,0.03061749,-0.02748589,0.145419,-72.40881,142.9461)"
       gradientUnits="userSpaceOnUse"
       id="radialGradient6021"
       inkscape:collect="always"
       r="207.65598"
       xlink:href="#linearGradient4436" />
    <radialGradient
       cx="565.63556"
       cy="1049.411"
       fx="565.63556"
       fy="1049.411"
       gradientTransform="matrix(-0.106271,-0.194771,0.544932,-0.297324,122.6551,642.4028)"
       gradientUnits="userSpaceOnUse"
       id="radialGradient6031"
       inkscape:collect="always"
       r="207.65598"
       xlink:href="#linearGradient4418" />
    <radialGradient
       cx="365.71429"
       cy="359.50504"
       fx="365.71429"
       fy="359.50504"
       gradientUnits="userSpaceOnUse"
       id="radialGradient7775"
       inkscape:collect="always"
       r="304.28571"
       xlink:href="#linearGradient7777" />
  </defs>
  <sodipodi:namedview
     bordercolor="#666666"
     borderopacity="1.0"
     id="base"
     inkscape:current-layer="layer1"
     inkscape:cx="339.23621"
     inkscape:cy="312.49521"
     inkscape:document-units="px"
     inkscape:pageopacity="0.0"
     inkscape:pageshadow="2"
     inkscape:window-height="852"
     inkscape:window-width="1440"
     inkscape:window-x="0"
     inkscape:window-y="0"
     inkscape:zoom="0.49497475"
     pagecolor="#ffffff"
     showborder="false"
     showgrid="false"
     fit-margin-top="0"
     fit-margin-left="0"
     fit-margin-right="0"
     fit-margin-bottom="0"
     inkscape:window-maximized="0" />
  <g
     id="layer1"
     inkscape:groupmode="layer"
     inkscape:label="Layer 1"
     transform="translate(-61.43568,-52.366841)">
    <g
       id="g6033">
      <path
         d="m 670,359.50504 c 0,168.05235 -136.23335,304.2857 -304.28571,304.2857 -168.05235,0 -304.285701,-136.23335 -304.285701,-304.2857 0,-168.05236 136.233351,-304.28571 304.285701,-304.28571 C 533.76665,55.21933 670,191.45268 670,359.50504 z"
         id="path1379"
         sodipodi:cx="365.71429"
         sodipodi:cy="359.50504"
         sodipodi:rx="304.28571"
         sodipodi:ry="304.28571"
         sodipodi:type="arc"
         style="color:#000000;fill:#e8d794;fill-opacity:1;fill-rule:evenodd;stroke:none;stroke-width:1.9883709;marker:none;visibility:visible;display:inline;overflow:visible"
         transform="matrix(1.007019,0,0,1.004679,-0.424076,-3.11086)" />
      <path
         d="m 522.05358,622.27289 c 5.29851,-2.94642 7.65869,-4.52145 11.1607,-6.69642 -4.62299,-2.08568 -11.06644,-9.28322 -16.07142,-11.78572 -6.02414,-3.01206 -6.97534,-6.47279 -8.57143,-12.85714 -1.2056,-4.8224 12.54485,-4.28571 17.14286,-4.28571 10.25372,0 -0.52254,-10.52254 -1.42858,-11.42857 -2.29614,-2.29614 -15.76427,-3.22679 -20,-4.28572 -7.46447,-1.86612 -11.79766,-2.85714 -20,-2.85714 -8.92628,0 -11.45252,1.47648 -14.28571,7.14286 -2.33103,4.66205 -2.33654,13.2445 -4.28571,17.14285 -2.25305,4.5061 -18.62004,0.34499 -20,0 -5.17922,-1.2948 -13.58812,-7.33394 -17.14286,-10 -6.03132,-4.52349 -11.31778,-7.11516 -17.14286,-8.57143 -7.03711,-1.75927 -13.97831,-6.55516 -18.57143,-10 -3.35005,-2.51254 -13.5409,-4.81379 -17.14285,-5.71428 -6.66367,-1.66592 -12.26042,-1.42857 -20,-1.42857 -5.49018,0 -15.12742,-1.28186 -21.42858,-2.85715 -10.08597,-2.52149 -20.12351,-1.81659 -30,-4.28571 -7.64836,-1.91209 -16.15497,-4.28571 -24.28571,-4.28571 -7.80498,0 -18.29095,-5.28703 -25.71429,-7.14286 -5.9831,-1.49578 -14.52026,-6.96163 -18.57142,-10 -4.09557,-3.07167 -11.70568,-5.13855 -15.71429,-7.14286 -4.81352,-2.40676 -13.2244,-1.42857 -20,-1.42857 -7.3296,0 -12.96792,-1.45627 -18.57143,-2.85714 -5.72147,-1.43037 -9.76972,-5.48401 -12.85714,-8.57143 -4.00262,-4.00262 1.26432,-13.62871 1.42857,-14.28572 0.30217,-1.20869 12.49905,-2.85335 14.28571,-10 2.18335,-8.73339 11.94457,1.03199 12.85715,2.85715 2.80103,5.60207 12.49512,1.33806 18.57143,2.85714 5.47256,1.36814 7.02923,8.4578 10,11.42857 5.85262,5.85263 2.37202,-2.34523 4.28571,-10 0.86714,-3.46857 14.81071,-2.85714 18.57143,-2.85714 5.19647,0 14.48494,1.83552 18.57143,2.85714 10.18057,2.54514 10.62832,-5.20006 25.71428,-1.42857 6.71167,1.67792 10.36621,6.87727 17.14286,8.57143 9.81427,2.45357 11.65343,-1.20371 17.14286,4.28571 5.16103,5.16104 1.97171,10.88543 10,2.85715 6.39951,-6.39952 3.32546,-2.41246 5.71428,7.14285 1.99794,7.99176 10.56114,-1.98971 12.85715,-4.28571 C 359.97346,503.81729 350,519.19594 350,525.21933 c 0,2.41942 14.19496,4.95462 15.71429,5.71428 3.71171,1.85586 3.78499,12.00286 2.85714,15.71429 -2.56696,10.26783 1.98466,8.29338 7.14286,5.71428 5.97073,-2.98537 4.07729,-10.83367 2.85714,-15.71428 -1.58605,-6.34418 -3.04271,-10.6863 -1.42857,-17.14286 0.68266,-2.73065 5.32677,10.12149 4.28571,14.28571 -2.80888,11.23554 5.88217,8.52946 11.42857,7.14286 0.74147,-0.18537 0,-19.49332 0,-21.42857 0,-2.38095 5.71429,1.90476 5.71429,4.28571 0,1.39171 16.42625,-7.85481 5.71428,2.85715 -8.0471,8.0471 3.8716,4.49277 7.14286,2.85714 5.54362,-2.77181 5.57623,1.29052 10,5.71429 2.23274,2.23273 0.60534,-20.01611 0,-21.42858 -0.9058,-2.11353 -11.31922,-7.0335 -12.85714,-8.57142 -3.93114,-3.93114 -8.24196,-5.38483 -12.85714,-10 -7.33831,-7.33831 -7.84848,-2.15153 -10,0 -3.83917,3.83917 9.01797,6.16082 12.85714,10 2.94217,2.94217 13.60392,8.57142 1.42857,8.57142 -3.73305,0 -11.7284,-5.86419 -14.28571,-7.14285 -5.07206,-2.53603 -4.45811,-10.68956 -5.71429,-15.71429 -1.75602,-7.02407 -1.66391,-13.79851 -2.85714,-18.57143 -2.26087,-9.04349 2.84861,-15.70575 -4.28572,-8.57143 -1.29205,1.29205 3.48194,15.35634 4.28572,18.57143 1.55738,6.22952 0,14.96934 0,21.42857 0,10.61838 -6.37044,-6.91033 -7.14286,-10 -1.70908,-6.8363 -2.85714,-11.16137 -2.85714,-18.57142 0,-6.98275 -3.51821,-11.32213 -5.71429,-15.71429 -2.90467,-5.80935 -2.98343,-10.12629 -7.14286,-14.28571 -0.51168,-0.51169 2.39856,15.30849 2.85715,17.14285 1.53669,6.14676 4.09311,10.65818 5.71428,17.14286 1.43177,5.72708 2.85715,10.04996 2.85715,18.57143 0,12.41222 -4.71699,4.85174 -7.14286,0 -2.45793,-4.91587 -5.40078,-9.68649 -8.57143,-12.85714 -6.0927,-6.09271 3.83439,-11.54141 -7.14286,-14.28572 -7.58673,-1.89668 -5.78402,-5.01743 -14.28571,-7.14286 -4.43293,-1.10823 6.43876,-10.72447 7.14286,-11.42857 7.26084,-7.26085 -18.1556,-5.9222 -4.28572,-12.85714 7.45226,-3.72613 -7.38756,-9.40807 -8.57143,-10 -0.92256,-0.46128 -8.57143,-19.44153 -8.57143,-4.28571 0,8.34004 -0.3129,7.29931 -8.57142,11.42857 -3.86411,1.93205 1.42857,12.65662 1.42857,17.14285 0,8.22425 3.16672,10.30958 7.14285,14.28572 6.05359,6.05358 5.99295,13.28395 -1.42857,11.42857 -5.748,-1.437 -9.38689,-4.28571 -18.57143,-4.28571 -8.66022,0 -2.47943,-8.57143 -12.85714,-8.57143 -8.62325,0 -11.18786,1.54892 -17.14286,-1.42857 -7.45564,-3.72783 -5.76644,-9.79135 -4.28571,-15.71429 2.24424,-8.97695 -5.52877,-8.52505 -11.42857,-10 -7.58155,-1.89539 -12.72324,1.42857 -20,1.42857 -6.26915,0 -6.10595,9.35476 -8.57143,14.28572 -0.87578,1.75156 -11.94852,6.55855 -14.28571,7.14285 -4.38271,1.09568 -11.35365,-5.67682 -14.28572,-7.14285 -5.38146,-2.69073 -13.60788,-1.42858 -20,-1.42858 -4.70519,0 -12.43697,-5.96638 -17.14286,-7.14285 -8.5362,-2.13405 -13.56147,2.83723 -15.71428,7.14285 -3.76495,7.5299 -2.06919,9.60603 -8.57143,12.85715 -4.79923,2.39961 -17.05012,-0.69111 -20,-1.42857 -5.74035,-1.43509 -9.76087,-5.47516 -12.857143,-8.57143 -4.370625,-4.37063 -6.958248,-7.09671 -12.857143,-8.57143 -10.378932,-2.59474 -9.064129,0.83844 -7.321429,6.42857 9.527742,30.56256 27.188295,61.83116 43.214285,83.75 2.2859,3.12643 33.09992,-2.21609 35.53572,-1.60714 6.50841,1.6271 12.90762,2.1681 20,5.71428 6.01202,3.00602 14.13179,3.49447 18.57142,5.71429 7.59476,3.79737 12.43699,7.7521 21.42858,10 7.59204,1.89801 12.65798,1.2792 18.57142,5.71428 3.93354,2.95015 16.93852,5.6632 22.85715,7.14286 7.1262,1.78155 14.16333,4.25512 20,5.71429 8.34133,2.08533 19.19112,10.30984 24.28571,12.85714 6.86315,3.43158 15.96448,5.47861 24.28572,7.14286 8.88687,1.77737 15.93639,4.28571 25.71428,4.28571 7.83684,0 18.1066,5.24094 25.71429,7.14286 2.77183,0.69296 2.0203,6.55112 0,8.57143 -1.36268,1.36267 14.72456,5.46685 15.71428,5.71428 6.96945,1.74237 14.5566,1.13915 21.42857,2.85715 6.22952,1.55737 14.96935,0 21.42858,0 7.14285,0 14.28571,0 21.42857,0 9.52381,0 19.04762,0 28.57143,0 8.62698,0 12.74289,-1.40001 18.57142,-2.85715 6.22952,-1.55738 11.30864,-0.0893 17.76787,-0.0893 z"
         id="path2836"
         sodipodi:nodetypes="ccsssssssssssssssssssssssssssssssssssssssssssssssssssssssssssssssssssssssssssssssssssssssssssssssssssssssssssssssssssssc"
         style="color:#000000;fill:url(#radialGradient4343);fill-opacity:1;fill-rule:evenodd;stroke:none;stroke-width:1px;marker:none;visibility:visible;display:inline;overflow:visible"
         inkscape:connector-curvature="0" />
      <path
         d="m 649.28571,382.36218 c 3.49773,10.3966 3.63936,22.66099 -1.54363,32.51412 -4.17363,2.06147 -7.96258,3.51116 -6.55558,9.59389 -4.58212,6.96729 1.49957,13.67833 4.07206,20.04027 3.40311,4.59953 7.38452,18.39074 -2.80681,14.87717 -2.60407,-5.43734 -7.62115,-9.51509 -11.75858,-2.53806 -3.40708,7.69367 -1.90357,16.98762 6.17699,20.65614 3.83933,7.86387 -12.81,5.25948 -9.01302,14.85647 2.25538,7.99041 -7.33189,15.37723 -12.69545,7.84366 -1.05929,-6.64981 -6.76521,-7.46467 -8.73312,-0.7008 -0.80122,12.20162 -11.66679,1.34852 -12.48166,-5.2256 -2.1891,-7.86505 -12.44089,-7.66342 -15.01096,-14.94577 -0.85704,-7.16331 -3.86058,-16.78216 -12.93931,-15.57283 -9.30405,3.91405 -4.20985,15.69329 0.84771,21.13152 4.14122,7.13273 10.17295,12.23286 16.85336,16.77021 4.13667,3.97693 16.0645,13.22558 8.73043,18.44584 -9.54553,-1.51176 -16.59533,-9.96048 -22.28213,-17.24309 -5.83948,-8.64557 -15.11744,-14.41282 -20.8475,-23.14228 -3.70421,-9.1468 1.05261,-17.8448 0.59604,-27.00844 -2.61902,-7.19831 1.7373,-15.85271 10.11042,-11.30958 5.35636,0.56497 11.24136,-7.61904 14.59439,1.20841 1.9373,7.12559 15.22733,11.97918 9.30061,19.53423 -5.84233,7.45676 3.18153,7.60122 8.24289,5.21452 6.55621,-0.45401 16.02256,2.18022 20.37598,-3.7322 -0.22963,-7.28921 1.95862,-15.4553 8.77056,-19.28662 5.16869,-4.63149 4.21222,-15.23804 -0.70289,-19.94116 -7.6739,-5.26692 -2.23652,-15.12247 -5.33792,-22.23567 -1.97758,-5.81802 10.73331,-12.55781 1.50959,-16.69846 -9.43909,3.38873 -8.46452,-10.46923 -14.68383,-10.83755 -3.91406,6.23574 -13.83366,2.99485 -15.64578,12.01738 -7.55435,5.01376 -18.45282,3.40008 -21.93937,-5.80298 -4.9567,-11.16237 -9.57204,4.21203 -6.55207,9.71787 3.74124,9.52682 -8.03599,8.40935 -12.22441,10.95955 0.33098,6.33358 -0.97159,13.88174 -9.26004,10.29285 -9.68528,-3.36081 -0.22941,-15.91499 -2.08341,-20.38841 -7.74929,-0.70138 -21.30737,0.81409 -21.88286,-10.08827 4.56029,-8.33289 15.10325,-8.96207 23.46337,-9.58065 3.12048,-3.67871 4.89266,-7.92425 10.22769,-5.19442 7.49766,-4.17639 6.99011,-12.56024 0.74698,-17.46927 -0.17698,-4.53191 -1.10621,-14.13123 1.81086,-15.86271 4.76054,1.30706 6.02449,14.8133 10.0901,10.83219 -2.21263,-6.29611 -2.36963,-17.66114 6.96047,-11.09418 0.9456,5.38316 -0.7095,16.88421 8.55631,12.55451 6.65521,-5.35621 19.61636,-3.11086 14.58487,7.33452 -5.65697,4.09765 -7.96683,18.85927 2.80179,16.0134 8.34948,0.70242 13.32536,-11.60102 22.15292,-7.45906 5.53605,7.11526 11.58165,14.41374 21.76299,12.81925 5.13315,1.45342 8.97697,5.66268 13.64095,8.13009 z"
         id="path2851"
         style="color:#000000;fill:url(#radialGradient4331);fill-opacity:1;fill-rule:evenodd;stroke:none;stroke-width:1px;marker:none;visibility:visible;display:inline;overflow:visible"
         inkscape:connector-curvature="0" />
      <path
         d="m 238.57143,266.64789 c 9.1921,1.50654 17.73545,-3.88736 26.69751,-5.04293 12.04252,-1.55672 24.47781,0.6823 36.23462,-3.19058 7.35635,-1.47908 12.93712,-7.28758 20.42799,-8.44796 6.61141,-3.24279 14.13639,-2.38158 20.87345,-4.81815 6.62132,-3.64848 13.98027,-5.19395 21.22012,-7.08234 6.71581,-2.33089 13.12881,-5.60764 20.34095,-6.24999 7.90387,-2.29398 16.55581,-1.66018 24.24175,0.68684 -5.90026,6.05292 -13.53879,9.88952 -20.50832,14.49619 -7.87012,6.04666 -12.65673,15.24599 -14.96943,24.74054 -2.58255,5.44789 -7.38827,10.48709 -13.33358,12.05358 -14.33116,3.02885 -29.2343,-0.18979 -43.54237,3.26902 -11.2028,1.71134 -22.5785,0.53847 -33.83328,1.50258 -7.83321,0.46572 -13.12145,-6.16593 -19.99919,-8.47927 -6.70458,-0.8068 -14.65704,-0.32549 -19.09603,-6.61449 -1.82069,-2.0987 -3.32266,-4.44911 -4.75419,-6.82304 z"
         id="path4361"
         style="color:#000000;fill:url(#radialGradient4428);fill-opacity:1;fill-rule:evenodd;stroke:none;stroke-width:1px;marker:none;visibility:visible;display:inline;overflow:visible"
         inkscape:connector-curvature="0" />
      <path
         d="m 437.14286,232.36218 c 2.83727,0 16.27621,1.56906 21.42857,2.85715 8.99424,2.24855 -9.50168,8.57142 -12.85714,8.57142 -6.57749,0 -13.32006,1.42858 -21.42858,1.42858 -8.551,0 -12.65373,1.02057 -20,2.85714 -7.58828,1.89707 -13.99087,4.85258 -18.57142,7.14286 -7.23619,3.61809 -12.11046,6.05522 -17.14286,8.57142 -5.16445,2.58223 -8.11811,6.68954 -11.42857,10 -7.87148,7.87149 -0.0532,7.87046 2.85714,7.14286 5.80445,-1.45111 9.24353,-4.95782 12.85714,-8.57143 3.86404,-3.86404 10.26577,-5.13288 14.28572,-7.14285 6.27474,-3.13738 11.70186,-4.35404 17.14285,-5.71429 6.38432,-1.59608 10.4158,-2.60395 17.14286,-4.28571 5.99045,-1.49762 10.43739,-2.85715 18.57143,-2.85715 8.15686,0 11.5066,-0.67527 18.57143,2.85715 6.95344,3.47672 16.12672,0.96832 2.85714,4.28571 -7.35681,1.8392 -14.18159,0.66223 -18.57143,2.85714 -5.26831,2.63416 -0.12075,12.97789 -4.28571,17.14286 -5.48247,5.48247 -6.17756,7.14286 -15.71429,7.14286 -6.88285,0 -9.6945,-4.20934 -15.71428,-5.71429 -3.33907,-0.83477 -9.92772,7.10671 -12.85715,8.57143 -6.27283,3.13642 -9.86609,2.72324 -14.28571,7.14286 -3.42727,3.42726 -5.51906,11.03811 -7.14286,14.28571 -3.32817,6.65634 -5.90523,10.3819 -8.57143,15.71429 -2.81038,5.62077 -12.85714,4.36254 -12.85714,-2.85715 0,-7.09782 4.28572,-10.51344 4.28572,-18.57142 0,-6.45629 4.63751,-11.78038 -2.85715,-4.28572 -3.80952,3.80952 -1.90476,13.33333 -5.71428,17.14286 -5.2597,5.25969 -13.01682,-8.09665 -17.14286,-14.28572 -1.86777,-2.80166 -3.77568,7.14286 -7.14286,7.14286 -9.21635,0 -1.02875,-16.1141 -11.42857,-5.71428 -2.59077,2.59077 4.28572,12.63126 4.28572,17.14285 0,9.16386 -0.91108,10.94206 -8.57143,12.85715 -6.9716,1.74289 -8.09398,1.66729 -14.28572,-1.42858 -4.78463,-2.39231 -10.0161,-6.43662 -14.28571,-8.57142 -6.30857,-3.15429 -12.79473,-3.54023 -17.14286,-5.71429 -5.57693,-2.78847 -13.40481,-1.56549 -18.57143,-2.85714 -8.69611,-2.17403 -13.79773,0.94059 -18.57143,5.71428 -6.03879,6.0388 -5.94407,4.88511 1.42858,8.57143 8.6382,4.3191 1.64924,9.17538 -2.85715,11.42857 -6.53297,3.26649 -14.46041,4.32939 -20,5.71429 -6.22951,1.55738 -14.96934,0 -21.42857,0 -5.55607,0 -13.46803,6.73401 -17.14286,8.57143 -8.67566,4.33783 1.83197,11.83196 4.28572,14.28571 5.1182,5.1182 6.88116,5.19089 10,11.42857 2.31363,4.62726 0.45495,16.10551 1.42857,20 2.01708,8.06834 9.69453,8.77812 11.42857,15.71429 1.79469,7.17877 -11.75686,5.71428 -17.14286,5.71428 -5.57927,0 -12.58367,-9.72653 -14.28571,-11.42857 -3.57143,-3.57143 -5,-9.28571 -8.57143,-12.85714 -3.421,-3.421 -15.02774,-0.88592 -18.57143,0 -9.46096,2.36524 -9.90897,-5.35019 -11.42857,-11.42857 -1.17603,-4.70412 4.07616,-12.43804 5.71429,-15.71429 3.36449,-6.72898 4.63775,-12.87755 2.85714,-20 -2.22303,-8.89211 0.86645,-13.29037 5.71429,-15.71428 5.87866,-2.93934 12.90525,-2.16692 17.14285,-4.28572 6.9087,-3.45435 7.75709,-6.58213 15.71429,-8.57143 9.5771,-2.39427 13.50297,-2.58332 11.42857,5.71429 -1.4507,5.8028 -9.47061,10 2.85714,10 8.8877,0 10.16178,-2.85714 18.57143,-2.85714 5.76364,0 5.71429,-11.73383 5.71429,-12.85715 0,-5.57386 -7.14286,-5.44849 -7.14286,-14.28571 0,-5.0089 9.38273,-8.57143 14.28571,-8.57143 8.60969,0 10.53534,-2.32181 15.71429,2.85714 3.70309,3.7031 7.10828,11.29028 4.28571,0 -2.5446,-10.1784 3.58897,-9.82581 10,-11.42857 10.01806,-2.50451 4.16234,-6.39772 -4.28571,-4.28571 -11.3482,2.83705 -2.98531,-8.50735 0,-10 4.97279,-2.4864 17.14369,0 22.85714,0 6.19058,0 9.95626,4.27478 15.71429,5.71428 8.14704,2.03676 10.71615,-2.85714 18.57143,-2.85714 6.68257,0 9.38818,-5.91922 11.42857,-10 0.62315,-1.24631 18.3067,-2.43382 20,-2.85714 5.30723,-1.32681 9.96387,-5.67816 12.85714,-8.57143 2.89956,-2.89956 11.93094,-5.71429 17.14286,-5.71429 5.90115,0 10.46945,-5.83164 15.71428,-7.14285 4.29699,-1.07425 9.93637,-4.26981 15.71429,-5.71429 7.55803,-1.88951 10.99412,-5.60567 17.14286,-7.14286 6.83891,-1.70972 13.77128,-1.20003 18.57143,0 3.01441,0.75361 9.46376,-1.03561 11.42857,-1.42857 z"
         id="path2856"
         style="color:#000000;fill:url(#radialGradient4339);fill-opacity:1;fill-rule:evenodd;stroke:none;stroke-width:1px;marker:none;visibility:visible;display:inline;overflow:visible"
         inkscape:connector-curvature="0" />
      <path
         d="m 264.28571,375.21933 c 6.61445,1.65361 -13.18199,-4.28572 -20,-4.28572 -7.29944,0 -14.63052,0.0862 -20,1.42857 -8.23834,2.05959 -11.38932,6.98589 -12.85714,12.85715 -2.64484,10.57938 9.85863,3.60677 12.85714,2.85714 7.52628,-1.88157 10.19761,-5.40655 17.14286,-7.14286 6.94571,-1.73643 11.5868,3.65054 15.71429,5.71429 6.00805,3.00402 9.41394,4.43223 15.71428,2.85714 6.34418,-1.58604 10.6863,-3.04271 17.14286,-1.42857 6.16148,1.54037 15.93914,-0.41336 20,-1.42857 9.53861,-2.38466 -8.78965,-8.26885 -10,-8.57143 -9.25005,-2.31251 -10.07895,-1.05765 -15.71429,-8.57143 -1.81712,-2.42284 -10.91632,-6.88674 -14.28571,-8.57143 -6.92344,-3.46172 -11.28307,-6.85186 -7.14286,1.42857 3.81998,7.63995 6.65985,-0.22104 1.42857,12.85715 z"
         id="path2858"
         style="color:#000000;fill:url(#radialGradient4341);fill-opacity:1;fill-rule:evenodd;stroke:none;stroke-width:1px;marker:none;visibility:visible;display:inline;overflow:visible"
         inkscape:connector-curvature="0" />
      <path
         d="m 428.57143,488.07647 c 3.04911,6.09821 -13.38556,-5.93933 -20,-4.28572 -4.5499,1.13748 1.51948,10.75975 5.71428,12.85715 6.42688,3.21343 11.10596,4.83869 15.71429,7.14285 5.27177,2.63589 9.83209,4.91605 14.28571,7.14286 8.65133,4.32566 -0.77763,11.42857 -7.14285,11.42857 -4.46626,0 -2.85182,8.55013 -4.28572,14.28572 -1.86006,7.44027 -6.15359,7.14285 -14.28571,7.14285 -7.51068,0 -6.69767,-5.22259 -14.28572,-1.42857 -5.36963,2.68482 -8.0027,6.57414 -11.42857,10 -3.72049,3.7205 14.77637,4.28572 17.14286,4.28572 13.08004,0 26.17045,1.42857 37.14286,1.42857 9.62153,0 12.64379,0.21335 17.14285,-4.28572 7.64032,-7.64031 -7.45978,-10 -11.42857,-10 -6.39943,0 -10.2618,-6.76149 -11.42857,-11.42857 -1.00527,-4.02108 12.47188,-6.23593 14.28572,-7.14285 0.87101,-0.43551 -5.35751,-15.00073 -5.71429,-15.71429 -2.6292,-5.2584 -9.76152,-11.1901 -12.85714,-14.28571 -3.58462,-3.58462 -0.90271,-1.00788 -8.57143,-7.14286 z"
         id="path2860"
         style="color:#000000;fill:url(#radialGradient4355);fill-opacity:1;fill-rule:evenodd;stroke:none;stroke-width:1px;marker:none;visibility:visible;display:inline;overflow:visible"
         inkscape:connector-curvature="0" />
      <path
         d="m 65.714286,306.29076 c 5.535713,-32.14286 17.489358,-65.8902 28.571429,-86.07144 -1.775072,-8.03837 13.893595,6.03646 18.571425,10.71429 5.83618,5.83618 -3.07737,11.53869 -5.71428,12.85714 -5.69115,2.84558 13.02104,2.85715 15.71428,2.85715 8.09524,0 16.19048,0 24.28572,0 8.7805,0 16.52058,-1.42857 25.71428,-1.42857 7.0211,0 15.0623,-0.19415 20,-1.42858 6.60343,-1.65085 11.19358,-4.22696 17.14286,-5.71428 6.02483,-1.50621 11.48388,-4.29954 17.14286,-5.71429 8.47544,-2.11886 17.47446,-2.22576 25.71428,-4.28571 8.22333,-2.05583 18.76556,-2.54853 25.71429,-4.28572 6.98133,-1.74533 16.84341,-1.42857 22.85714,-1.42857 8.25213,0 -12.63894,9.38493 -15.71428,10 -11.66302,2.3326 -23.14454,3.48605 -34.28572,5.71429 -10.85478,2.17095 -18.03448,9.15147 -27.14286,11.42857 -9.40989,2.35247 -14.78305,6.19576 -24.28571,8.57143 -8.04965,2.01241 -17.23867,8.62892 -24.28571,12.85714 -7.09325,4.25595 -14.74741,6.17598 -20,11.42857 -4.7001,4.7001 -15.42013,4.21218 -21.42858,5.71429 -8.98238,2.24559 -17.18235,2.87689 -25.71428,7.14286 -7.77429,3.88714 -14.565639,4.42567 -20.000001,7.14285 -5.465719,2.73286 -11.136054,2.78402 -17.142858,4.28572 -1.385917,0.34648 -4.285713,-0.35714 -5.714285,-0.35714 z"
         id="path2864"
         sodipodi:nodetypes="ccsssssssssssssssssssssc"
         style="color:#000000;fill:url(#radialGradient4353);fill-opacity:1;fill-rule:evenodd;stroke:none;stroke-width:1px;marker:none;visibility:visible;display:inline;overflow:visible"
         inkscape:connector-curvature="0" />
      <path
         d="m 543.92857,107.71933 c -22.53734,-15.874187 -53.61239,-31.105837 -68.75,-36.071434 -5.13761,1.284403 -28.77872,9.657217 -36.60714,13.571429 -5.68474,2.842367 -16.98415,3.888895 -24.28572,5.714286 -9.915,2.47875 -20.05854,3.725994 -30,5.714285 -9.95192,1.990386 -18.43645,3.687294 -28.57142,5.714284 -10.08903,2.01781 -20.88503,1.42857 -31.42858,1.42857 -10,0 -20,0 -30,0 -8.09523,0 -16.19047,0 -24.28571,0 -7.61905,0 -15.2381,0 -22.85714,0 -7.56386,0 -14.14302,0.0357 -20,-1.42857 -16.16315,-4.040783 -26.04763,-1.26414 -32.85715,3.57143 -30.1849,21.4349 -51.18132,43.14562 -64.82143,60.17857 -6.14909,6.70486 22.86669,6.25 31.96429,6.25 10.44289,0 20.67669,1.42857 31.42857,1.42857 9.37306,0 18.82489,-1.42857 28.57143,-1.42857 9.04762,0 18.09524,0 27.14286,0 14.83233,0 28.51966,-2.85714 42.85714,-2.85714 11.49714,0 22.52294,-2.85714 34.28572,-2.85714 8.65978,0 18.65321,-6.44902 27.14285,-8.57143 13.19289,-3.29822 24.56745,-6.85615 37.14286,-10 9.08009,-2.27002 19.59551,-4.28572 28.57143,-4.28572 9.4283,0 22.3525,-3.44526 31.42857,-5.71428 12.03472,-3.00868 26.30485,-3.86671 35.71429,-8.57143 6.47668,-3.23834 15.45879,-6.46923 24.28571,-10 6.94899,-2.7796 12.21347,-2.33908 20,-4.28572 5.38712,-1.34677 10.75162,-5.91152 13.92857,-7.49999 z"
         id="path2866"
         sodipodi:nodetypes="ccsssssssssscsssssssssssssc"
         style="fill:url(#radialGradient4333);fill-opacity:1;fill-rule:evenodd;stroke:none"
         inkscape:connector-curvature="0" />
      <path
         d="m 234.28571,479.50504 c -3.28791,5.81477 -1.08341,13.54746 2.85715,21.42857 3.25522,6.51044 6.2529,9.11005 11.42857,14.28572 4.4426,4.4426 105.8774,34.18886 110,42.85714 3.55394,7.4726 -12.97209,5.71428 -17.14286,5.71428 -9.04762,0 -193.02516,-31.42857 -200,-31.42857 -7.14286,0 -24.28711,1.67867 -21.25,5.71429 118.08824,156.91175 306.5784,144.65722 404.82143,82.67857 2.07844,-1.31123 -14.02407,-7.90489 -15,-8.39286 -5.4344,-2.7172 -7.61695,-9.51961 -10,-14.28571 -2.31164,-4.62329 -4.45107,-13.51858 -5.71429,-18.57143 -1.53594,-6.14377 -6.16673,-10.11311 -11.42857,-11.42857 -6.26513,-1.56629 -10.1647,-3.17311 -17.14285,-1.42857 -6.96408,1.74102 -10.55448,2.85714 -18.57143,2.85714 -4.8222,0 -13.11123,1.42857 -20,1.42857 -7.14286,0 -14.28572,0 -21.42857,0 -8.13427,0 -12.69035,-1.02973 -20,-2.85714 -5.99285,-1.49821 -10.77574,-4.67359 -15.71429,-7.14286 -7.86877,-3.93438 -5.48332,-5.05774 2.85714,-7.14286 7.35327,-1.83831 14.9805,1.06168 18.57143,2.85715 5.10369,2.55184 11.72421,2.93105 17.14286,4.28571 6.22951,1.55738 14.96934,0 21.42857,0 13.52447,0 -0.51073,-17.65359 -4.28571,-21.42857 -4.02103,-4.02102 -5.5774,-22.34925 -38.57143,-25.71429 -6.72733,-0.68612 -11.49387,-1.58821 -17.14286,-4.28571 -31.07887,-14.84078 -126.59989,-33.83398 -135.71429,-30 z"
         id="path2868"
         sodipodi:nodetypes="cssssssssssssssssssssssssc"
         style="color:#000000;fill:url(#radialGradient4345);fill-opacity:1;fill-rule:evenodd;stroke:none;stroke-width:1px;marker:none;visibility:visible;display:inline;overflow:visible"
         inkscape:connector-curvature="0" />
      <path
         d="m 487.14285,149.50504 c -17.02269,0.62197 -30.38166,13.14406 -45.89372,18.69751 -11.70016,3.93793 -23.93849,6.44936 -36.33841,5.5882 -16.9219,-0.15362 -33.88998,0.67623 -50.72846,-1.36719 -12.53472,-0.39566 -25.00005,-2.12977 -37.57512,-1.48995 -17.62851,0.70331 -36.39943,-2.73441 -52.7554,5.69826 -13.08296,4.37045 -27.0372,6.17238 -39.19613,13.10964 -5.78287,1.42062 -9.94734,8.30519 -0.73789,6.56897 6.33696,0.0548 16.63141,-1.23528 20.27873,3.70928 -4.30002,1.6033 -17.40573,4.3569 -6.22887,7.46326 15.11058,5.53088 31.20375,1.51745 46.79807,1.69069 15.06925,-1.05724 30.16167,-1.58052 45.23435,-2.52581 14.25205,0.54502 27.94551,-3.81812 41.90438,-5.6422 16.96016,-1.07856 35.30963,2.79108 50.79138,-6.23304 9.21593,-2.82324 17.07778,-8.2848 25.52976,-12.64113 11.76303,-5.04544 23.68862,-9.73417 35.29356,-15.12287 8.43537,-4.18638 13.70395,-11.1688 3.62377,-17.50362 z"
         id="path4357"
         style="color:#000000;fill:url(#radialGradient4426);fill-opacity:1;fill-rule:evenodd;stroke:none;stroke-width:1px;marker:none;visibility:visible;display:inline;overflow:visible"
         inkscape:connector-curvature="0" />
      <path
         d="m 656.42857,460.93361 c 27.73731,-76.96918 24.67682,-167.15277 -17.85714,-245.89285 -11.81967,0.01 -39.92975,10.21354 -35.71429,28.74999 -6.97575,1.05999 -14.12553,-16.46787 -21.55898,-2.85713 -9.8202,12.85563 -31.04085,1.94423 -15.6158,-10.25961 20.07299,-1.91039 2.27901,-49.44306 -5.68236,-19.7404 -0.59654,21.91929 -30.306,9.9596 -34.39301,27.7711 -5.2784,20.18734 -35.10691,-8.3933 -33.76334,15.67276 -3.59171,15.97717 -28.01006,10.3454 -28.98651,29.41328 -16.87878,6.52755 -37.73438,-0.67135 -52.59076,9.72414 -12.45887,10.55935 -29.48707,18.08991 -30.54085,36.96305 -8.43873,10.89719 10.60876,28.70304 -12.78478,21.12225 -16.04271,-6.94838 -27.0187,-5.94245 -44.31464,-9.78232 -19.22256,10.01426 11.12308,17.3008 20.671,16.82391 9.28921,4.24836 -7.42905,12.36035 -27.02948,7.84628 -6.9207,-1.64055 -33.16537,-22.44205 -24.83906,-5.55445 16.65278,12.66794 47.87947,16.266 57.83259,23.89266 10.04469,14.16717 0.37244,-3.28906 -17.77681,6.15603 -12.70649,13.88188 5.62984,31.13538 18.22642,37.33092 14.28213,8.87794 21.42204,26.05708 38.35537,30.93918 14.09039,12.09788 34.13085,22.84008 49.07672,4.53835 20.18325,-9.65126 26.29764,19.96229 43.51841,24.68921 16.75949,3.36932 28.53628,16.71399 43.62444,23.88222 22.93104,7.62433 0.86976,27.27827 -13.53392,26.68522 -16.09582,2.74113 -31.62863,-6.36891 -45.84362,-12.79735 -17.99964,0.83064 -28.67136,-15.62759 -43.25112,-23.41648 -17.11738,-13.1647 4.55064,9.57498 9.53964,13.02874 12.14788,11.56271 32.40309,11.59944 39.88497,26.80546 9.23766,16.54711 30.46478,6.30809 45.0262,7.34069 12.69224,-9.87531 48.95686,8.16463 64.01533,19.1943 15.56912,-8.82013 18.83513,-37.34751 7.34686,-45.40371 -0.57466,-10.61838 -49.53117,-55.64621 -57.51962,-36.14297 -6.56121,16.98815 -22.45062,-6.9058 -17.9839,-15.53591 -15.02669,-2.95922 -18.11408,-14.5929 -6.9845,-25.02366 5.85337,-4.65212 7.94705,-25.05479 -0.69632,-9.02004 -5.17829,11.17079 -24.55408,10.46384 -10,-1.42857 6.95765,-6.53126 20.38744,-24.99386 19.90648,-5.86151 7.48254,0.75537 22.76765,-1.15373 15.10853,10.3684 7.61462,7.21975 27.74426,-10.3384 7.84214,-10.22118 -3.69933,-6.6605 7.5487,-21.93286 -9.97758,-18.20485 -7.52147,-2.98283 -9.84974,-15.01549 -17.02433,-1.76002 -4.46621,6.04701 -23.96323,16.35562 -22.95225,14.35423 10.40603,-1.62202 6.88556,-33.07133 15.10856,-22.47411 4.32041,24.13535 13.72563,-23.57939 0.55988,-20.48668 -16.68514,11.96546 -27.22127,-26.55673 -4.28571,-21.42857 1.7087,-14.07909 17.07641,-0.0305 24.28571,-12.85714 8.46899,0.47833 -1.95593,31.16616 10.99676,14.87761 8.535,-11.74296 -0.40634,-21.66781 -0.99676,-34.87761 14.14904,-5.98181 13.21405,-22.12175 18.72531,-32.98064 -0.0521,9.79631 2.83998,28.66867 13.15641,11.68264 10.6792,-15.98836 11.87478,16.34206 10.07008,23.36689 5.98547,7.91324 21.20071,-3.12238 24.89347,11.3984 22.66402,9.6975 -3.91812,-19.77413 3.15473,-30.61015 3.6425,-13.91413 26.84132,-10.94496 20.01732,-29.77807 -6.45778,-17.76086 18.35012,-33.64086 28.55411,-17.36479 4.36954,14.4388 5.31254,32.56961 -2.5637,45.91379 -8.80364,15.11282 -18.3644,30.70289 -22.84228,47.71203 -0.47072,16.30047 31.36548,14.67739 26.741,35.55603 -0.34359,15.70041 -13.689,29.59902 -7.73519,46.62878 3.3487,7.66013 4.91286,15.80141 11.40017,21.33223 z"
         id="path4359"
         sodipodi:nodetypes="cccccccccccccccccccccccccccccccccccccccccccccccccccccccccccc"
         style="color:#000000;fill:url(#radialGradient4424);fill-opacity:1;fill-rule:evenodd;stroke:none;stroke-width:1px;marker:none;visibility:visible;display:inline;overflow:visible"
         inkscape:connector-curvature="0" />
      <path
         d="m 521.42859,499.50504 c -9.77736,-7.42016 -18.9273,-15.63996 -28.05074,-23.81669 -3.75676,-9.07643 -13.55622,-11.66503 -19.23222,-19.12601 -6.4124,-7.35754 -16.87092,-7.59243 -25.27555,-11.32466 -8.26932,-1.54236 -16.66944,2.17674 -25.10147,0.20066 -9.83361,-0.34107 -20.5454,0.36933 -28.87887,-5.91236 -7.83468,-4.62406 -13.22872,-12.57984 -22.0326,-15.73523 -4.89817,-2.87364 -14.08235,-6.00227 -17.95477,-3.27035 9.35605,6.51395 21.06573,9.61177 28.8864,18.35587 8.05939,5.13315 12.87538,14.2166 21.59368,18.29093 9.01917,4.78252 20.7253,-0.92288 28.64648,6.53457 6.42652,4.30137 8.87312,13.8266 17.38298,14.6996 8.79331,1.41714 17.76254,1.49474 26.41238,3.83554 14.15271,1.12177 23.94474,12.83279 32.29736,23.04268 5.56207,6.83854 17.04409,5.67082 20.61364,14.56719 2.36613,8.52845 10.7566,11.37746 18.00325,14.76463 5.7468,5.06764 19.26888,4.89371 14.89773,-5.8357 -3.72578,-6.79487 -11.90235,-9.67935 -15.72062,-16.61731 -5.45994,-10.16221 -18.65082,-6.08387 -26.48708,-12.65336 l 2e-5,0 z"
         id="path5910"
         style="color:#000000;fill:url(#radialGradient5938);fill-opacity:1;fill-rule:evenodd;stroke:none;stroke-width:1px;marker:none;visibility:visible;display:inline;overflow:visible"
         inkscape:connector-curvature="0" />
      <path
         d="m 188.57143,432.36218 c -6.89844,0 -12.85714,-7.84716 -12.85714,7.14286 0,2.31042 11.58503,7.29931 12.85714,8.57143 3.69478,3.69478 11.26738,3.96887 15.71428,2.85714 5.40726,-1.35181 -1.7731,-11.77311 -5.71428,-15.71428 -2.48407,-2.48407 -6.44278,-2.1457 -10,-2.85715 z"
         id="path4363"
         style="color:#000000;fill:url(#radialGradient4432);fill-opacity:1;fill-rule:evenodd;stroke:none;stroke-width:1px;marker:none;visibility:visible;display:inline;overflow:visible"
         inkscape:connector-curvature="0" />
      <path
         d="m 224.28571,426.6479 c -5.88727,-5.88728 -12.87907,2.94487 -14.28571,8.57143 -1.73008,6.92031 8.47175,7.14285 14.28571,7.14285 5.70951,0 9.29257,-4.28571 17.14286,-4.28571 9.08886,0 11.41458,1.41457 15.71429,5.71428 3.4353,3.43531 6.76007,11.04579 7.14285,11.42858 2.60044,2.60043 4.28572,-14.24315 4.28572,-17.14286 0,-6.23167 -5.69212,-9.27463 -10,-11.42857 -5.53372,-2.76686 -10.39326,-4.38403 -15.71429,-5.71429 -6.17908,-1.54477 -7.75224,-6.93305 -10,-11.42857 -2.83265,-5.66531 5.90795,-5.30873 -7.14285,-8.57143 -5.38748,-1.34687 -8.89824,-7.22456 -14.28572,-8.57143 -4.91083,-1.22771 6.42065,7.84922 10,11.42857 3.96424,3.96424 2.85714,15.18346 2.85714,22.85715 z"
         id="path4365"
         style="color:#000000;fill:url(#radialGradient4430);fill-opacity:1;fill-rule:evenodd;stroke:none;stroke-width:1px;marker:none;visibility:visible;display:inline;overflow:visible"
         inkscape:connector-curvature="0" />
      <path
         d="m 665.71429,429.50504 c 5.81332,-25.02694 9.16079,-50.74234 8.62218,-76.46485 -0.41467,-3.8405 0.20899,-9.66809 -1.2559,-12.2543 -1.16862,0.68117 -3.44012,0.53236 -1.11378,-0.45473 -2.98357,0.2009 -4.12417,7.11659 -6.45187,2.4122 -1.51741,-3.84005 -7.06798,-3.58585 -7.0237,0.98237 -0.20772,3.54998 1.80532,6.74895 -0.7337,9.87811 -1.99173,3.93161 1.64479,6.31232 3.47968,9.03756 1.60803,4.44605 -6.37376,6.27441 -2.62307,10.82192 2.47653,3.76678 7.92606,3.84778 10.47733,7.5906 1.82027,3.36164 -1.03077,6.98108 -0.57792,10.54854 0.68316,5.72297 -2.6789,11.1601 -1.53006,16.87091 -0.27407,4.96091 -6.5445,3.99227 -9.29486,6.65282 -2.99617,2.62694 -4.01811,8.17454 -1.10043,11.16037 2.93271,1.53066 6.28556,1.13809 9.1261,3.21848 z"
         id="path4390"
         style="color:#000000;fill:url(#radialGradient6002);fill-opacity:1;fill-rule:evenodd;stroke:none;stroke-width:1px;marker:none;visibility:visible;display:inline;overflow:visible"
         inkscape:connector-curvature="0" />
      <path
         d="m 609.39095,169.85166 c -5.99557,-0.78021 -4.08348,6.71864 -11.97326,10.66353 -7.32172,3.66086 -10.88375,7.58473 -18.57142,11.42857 -7.64983,3.82491 -13.92836,10.53561 -21.42858,14.28572 -6.69891,3.34945 -11.86395,7.36054 -17.14285,10 -7.23927,3.61963 -10.5466,3.40373 -15.71429,8.57142 -4.34735,4.34736 -14.80751,7.63045 -18.57143,8.57143 -3.48219,0.87055 -8.20427,10.46284 -10,12.85715 -3.6948,4.9264 -6.09949,7.91327 -8.57143,12.85714 -2.64293,5.28586 -6.26614,8.24657 -8.57142,12.85714 -2.9386,5.8772 -8.19531,9.0226 1.42857,11.42857 6.22951,1.55738 14.96934,0 21.42857,0 4.28556,0 11.41345,-7.13907 17.14286,-8.57143 4.60734,-1.15183 10.54814,-4.42275 15.71428,-5.71428 6.51449,-1.62862 13.39198,-1.56228 18.57143,-2.85714 6.22951,-1.55738 14.96934,0 21.42857,0 7.14286,0 14.28572,0 21.42857,0 6.46468,0 10.99433,2.85714 18.57143,2.85714 7.14286,0 14.28572,0 21.42857,0 5.24973,0 14.49573,10.55128 16.61548,14.79079 3.01545,6.0309 4.85801,10.57229 8.57143,14.28572 3.74993,3.74992 9.10483,11.1535 8.57143,7.39538 -7.31406,-51.53155 -37.75434,-107.67512 -60.35651,-135.70685 z"
         id="path6029"
         sodipodi:nodetypes="csssssssssssssssssssssc"
         style="color:#000000;fill:url(#radialGradient6031);fill-opacity:1;fill-rule:evenodd;stroke:none;stroke-width:1px;marker:none;visibility:visible;display:inline;overflow:visible"
         inkscape:connector-curvature="0" />
      <path
         d="m 481.42856,303.07648 c 7.23279,0.4375 15.04439,-1.39587 21.70489,2.26731 4.97298,1.56803 5.87014,7.7061 10.84765,9.45698 2.73576,1.8097 6.86195,7.18612 0.73371,6.93238 -5.09764,1.25202 -7.16424,-4.25452 -9.7692,-7.38254 -4.86657,-3.86434 -10.80557,1.11239 -16.30889,0.15281 -4.46729,-0.38698 -10.40949,0.78128 -13.32373,-3.46092 -2.86396,-4.22011 0.77248,-10.53966 -4.00775,-13.67744 -7.8474,-4.0877 -16.9052,-2.07518 -25.3543,-2.10465 -4.44834,0.53083 -9.89623,-0.0288 -13.28584,3.42226 -2.6502,4.43127 -6.80928,7.3972 -11.78175,8.79489 -6.48049,2.63439 -10.3163,8.92346 -16.16687,12.53422 -3.17158,3.18716 -5.56834,6.74205 -10.22823,7.62938 -1.76234,2.20199 -0.47183,9.42339 -4.96988,5.3189 -4.65902,-2.53576 -6.50808,-7.65682 -5.94714,-12.73638 0.18285,-7.10129 8.85563,2.12207 10.68309,-2.80136 1.6997,-4.01998 -0.0659,-9.11715 2.66069,-12.63723 4.11639,-3.30433 8.07705,2.00621 11.30072,2.90806 2.23994,-5.71456 6.79541,-10.16362 8.92713,-16.04525 3.1762,-3.59924 8.60769,-1.59086 12.81827,-2.12882 4.19114,-4.62859 11.94819,-5.67448 15.64313,0.34907 3.86453,2.23281 8.88066,2.02373 13.03775,0.7515 3.1063,-3.77444 9.93341,-9.53339 13.53049,-3.19325 -1.02922,4.66086 -0.89157,9.36828 4.3325,11.5126 1.50542,1.54167 3.23527,2.80672 4.92356,4.13748 z"
         id="path4393"
         style="color:#000000;fill:url(#radialGradient5943);fill-opacity:1;fill-rule:evenodd;stroke:none;stroke-width:1px;marker:none;visibility:visible;display:inline;overflow:visible"
         inkscape:connector-curvature="0" />
      <path
         d="m 636.42857,226.6479 c 1.14807,1.14806 2.43455,6.00597 4.28572,7.85714 3.02493,3.02494 2.94025,3.48832 0.71428,5.71428 -1.9897,1.98971 -7.78556,0.37504 -9.28571,0 -4.02741,-1.00685 -5,-3.49896 -5,5.71429 0,2.0579 -4.02548,4.73976 -5,5.71429 -1.50484,1.50484 -4.04823,-6.90722 -4.28572,-7.85715 -1.16171,-4.64686 1.14178,-5.71428 5,-5.71428 4.97288,0 6.42857,0.99975 6.42857,-4.28572 0,-5.33479 1.68223,-6.05073 7.14286,-7.14285 z"
         id="path4395"
         style="color:#000000;fill:url(#radialGradient4446);fill-opacity:1;fill-rule:evenodd;stroke:none;stroke-width:1px;marker:none;visibility:visible;display:inline;overflow:visible"
         inkscape:connector-curvature="0" />
      <path
         d="m 485.08109,464.69841 c 0,-3.74447 -1.36289,9.37764 2.04433,11.05223 3.82316,1.879 3.0665,7.39486 3.0665,12.05695 0,5.47384 2.91937,6.99708 7.15517,8.03799 5.98381,1.47046 7.89939,-2.74103 10.22165,-5.02374 3.86432,-3.79847 -5.07966,-9.02741 -7.15516,-10.04748 -4.38796,-2.15658 -6.28775,-3.31844 -8.17732,-7.03323 -2.31268,-4.5465 -1.76772,-5.86533 -7.15517,-9.04272 z"
         id="path4397"
         style="color:#000000;fill:url(#radialGradient4448);fill-opacity:1;fill-rule:evenodd;stroke:none;stroke-width:1px;marker:none;visibility:visible;display:inline;overflow:visible"
         inkscape:connector-curvature="0" />
      <path
         d="m 347.16347,403.14577 c -2.21087,-4.43167 6.23105,-7.78964 8.44191,-12.22132 3.18346,-6.38125 -4.17685,-6.23922 -6.56593,-5.64062 -3.88269,0.97286 -5.96658,2.99 -9.37991,4.70051 -2.09703,1.05088 -5.85732,4.34541 -8.44191,5.64061 -4.28236,2.14601 -0.86506,8.60711 0,10.34113 2.52765,5.06669 -1.51803,0.4949 0,6.58071 0.12332,0.49443 8.03832,4.8316 9.37991,7.52081 3.00167,6.01687 -2.23954,7.33864 3.75195,10.34113 3.75297,1.8807 5.40264,-3.76042 10.3179,-3.76042 3.57137,0 5.66958,4.47593 10.31789,5.64062 5.67248,1.42131 8.0858,-2.46338 10.31791,-4.70051 3.78754,-3.79608 0.3381,-6.84308 -0.938,-9.40102 -0.46332,-0.92874 -8.85252,-4.90628 -10.31789,-5.64061 -1.1495,-0.57605 -4.66415,5.86917 -7.50393,6.58072 -1.22367,0.30661 -4.35043,-8.72047 -4.68996,-9.40103 -0.86038,-1.72464 -4.09124,-5.58062 -4.68994,-6.58071 z"
         id="path4399"
         style="color:#000000;fill:url(#radialGradient6021);fill-opacity:1;fill-rule:evenodd;stroke:none;stroke-width:1px;marker:none;visibility:visible;display:inline;overflow:visible"
         inkscape:connector-curvature="0" />
      <path
         d="m 398.10922,430.24262 c -0.80163,-7.24559 -15.00935,-14.56964 -11.97558,-2.19588 -0.46783,9.11653 -15.7792,2.41932 -13.347,13.5538 0.90719,12.92397 15.16904,10.02146 23.96963,11.98825 10.42691,2.25664 11.08919,13.86001 15.58349,21.26577 8.69163,4.03864 14.93252,-8.53735 21.09896,-13.34231 8.16689,-2.86499 10.18258,-18.42356 -1.5854,-12.73546 -8.71941,3.44136 -15.70269,-5.66869 -5.47264,-9.75894 -1.786,-4.60603 -11.29092,-0.47553 -14.08866,-7.02473 -3.94783,-4.02985 -9.43218,-0.71212 -14.1828,-1.7505 z"
         id="path4401"
         style="color:#000000;fill:url(#radialGradient6019);fill-opacity:1;fill-rule:evenodd;stroke:none;stroke-width:1px;marker:none;visibility:visible;display:inline;overflow:visible"
         inkscape:connector-curvature="0" />
      <path
         d="m 529.28571,250.93361 c -0.50598,-8.35004 15.41147,-11.38651 19.66487,-4.23367 2.28322,9.33515 7.87265,17.5485 9.6223,26.68741 2.25013,11.38155 -13.11903,6.70327 -16.43002,0.4034 -5.14182,-5.8573 -11.96196,-6.84182 -17.73802,-1.85385 -5.35217,-1.07227 -14.66726,3.69621 -10.12029,8.59375 8.49691,-0.52342 16.36416,4.37559 17.69239,13.11349 -0.48968,6.88574 -13.71461,10.11797 -18.58612,4.12762 -9.68889,-1.50153 -2.89161,-15.62104 -12.67653,-18.26672 -5.94525,-5.79681 -0.33129,-14.28245 7.53168,-12.53371 5.85158,-5.20244 16.81242,-2.32021 18.9605,-11.44705 0.61886,-1.56113 1.21294,-3.14384 2.07924,-4.59067 z"
         id="path4403"
         style="color:#000000;fill:url(#radialGradient4412);fill-opacity:1;fill-rule:evenodd;stroke:none;stroke-width:1px;marker:none;visibility:visible;display:inline;overflow:visible"
         inkscape:connector-curvature="0" />
      <path
         d="m 447.85715,335.93362 c -3.91086,-3.82746 -13.07269,-7.96583 -15.00001,0.71428 -0.65136,5.73153 10.78448,0.62028 7.68654,8.52079 -0.87651,6.7513 0.27441,13.09572 8.32165,10.11619 4.87258,6.56829 -0.81554,17.15542 8.27753,21.36302 0.21387,8.70621 6.85619,12.41353 12.68784,17.68783 6.99648,4.48476 1.44441,18.20709 -6.97356,15.88359 -5.85305,-2.54083 -18.15603,-0.35848 -17.87041,-8.81231 0.0106,-5.34652 1.45801,-18.27589 -6.61117,-15.80574 -8.00908,7.31808 4.63599,16.06909 -1.39255,23.21621 -5.97056,7.00241 6.64326,13.50345 5.35352,21.22713 -4.15469,6.42173 0.49331,12.6885 7.80874,9.70338 6.11692,-0.3435 7.07748,-8.71017 10.33306,-9.77105 7.9264,6.41757 3.64682,-12.43902 12.74297,-11.25181 6.51434,-3.67058 1.53895,-14.97439 9.73446,-18.75214 4.9234,-5.69339 4.22988,-15.92501 -2.69998,-19.73187 -6.47799,-3.31356 -7.35812,-12.63101 -14.71915,-13.35515 -9.65742,-2.14026 -7.25562,-15.60249 -16.25092,-18.8095 -4.24879,-3.75807 2.75589,-8.23991 -1.42856,-12.14285 z"
         id="path4405"
         style="color:#000000;fill:url(#radialGradient4414);fill-opacity:1;fill-rule:evenodd;stroke:none;stroke-width:1px;marker:none;visibility:visible;display:inline;overflow:visible"
         inkscape:connector-curvature="0" />
      <path
         d="m 538.57141,326.64789 c -8.29158,-1.52465 -16.66099,2.70356 -19.3695,10.88189 -2.66115,7.46786 -12.77057,9.2282 -13.77038,17.57072 -3.49499,6.8039 8.12967,17.65164 11.70027,9.1436 0.84292,-7.2396 2.24793,-14.72586 7.15391,-20.45335 5.26352,-4.57986 17.08507,0.94893 19.11199,-7.90312 0.73967,-4.37357 0.42096,-8.19717 -4.82629,-9.23974 z"
         id="path4407"
         style="color:#000000;fill:url(#radialGradient4416);fill-opacity:1;fill-rule:evenodd;stroke:none;stroke-width:1px;marker:none;visibility:visible;display:inline;overflow:visible"
         inkscape:connector-curvature="0" />
      <path
         d="m 250,519.50507 c 16.21083,7.865 32.285,16.95493 50.06513,20.70718 7.93552,1.23733 15.95192,2.48748 23.4175,5.51362 8.44268,0.963 16.70216,2.65437 24.73308,5.39314 14.8224,2.67088 29.9587,0.53407 44.91599,1.1888 20.29794,0.16683 40.6283,0.49293 60.84963,-1.55626 5.32031,0.93397 16.14512,-3.50202 18.60836,-0.0304 -11.72457,4.0181 -24.27672,5.10562 -36.47924,6.58813 -9.97403,0.0781 -19.85575,1.91793 -29.84275,1.48249 -9.18406,0.99562 -18.31325,3.00171 -27.60436,2.10351 -20.37207,-0.0763 -41.60697,2.16841 -61.0021,-5.54306 -6.59083,-4.82628 -13.52936,-9.12568 -21.16626,-12.03082 -9.37268,-4.43151 -19.75221,-6.05206 -29.27357,-10.09348 -10.28614,-0.85705 -14.30421,-15.44127 -25.79284,-12.29435"
         id="path5904"
         style="color:#000000;fill:url(#radialGradient6008);fill-opacity:1;fill-rule:evenodd;stroke:none;stroke-width:1px;marker:none;visibility:visible;display:inline;overflow:visible"
         inkscape:connector-curvature="0" />
      <path
         d="m 580,395.21933 c 6.15151,-1.53788 9.93538,-4.02723 11.42857,-10 1.80761,-7.23043 9.58796,-4.49174 12.85714,-2.85715 5.88365,2.94183 5.56738,9.15909 4.28572,14.28572 -1.88411,7.53644 -3.92674,8.93041 1.42857,14.28571 4.12084,4.12084 5.71429,11.01668 5.71429,17.14286 0,4.73835 -6.85878,9.43184 -8.57143,12.85714 -3.24565,6.4913 -5.30181,8.57143 -14.28572,8.57143 -5.2432,0 -9.99665,-5.71093 -12.85714,-8.57143 -3.86404,-3.86404 -10.26577,-5.13288 -14.28571,-7.14286 -7.46802,-3.734 -9.45781,-1.77276 -12.85715,-8.57142 -1.91177,-3.82356 5.16448,-8.90039 7.14286,-12.85715 3.11216,-6.22432 13.77028,-15.58543 20,-17.14285 z"
         id="path6010"
         sodipodi:nodetypes="cssssssssssss"
         style="color:#000000;fill:url(#radialGradient6012);fill-opacity:1;fill-rule:evenodd;stroke:none;stroke-width:1px;marker:none;visibility:visible;display:inline;overflow:visible"
         inkscape:connector-curvature="0" />
      <path
         d="m 621.42859,232.36218 c -10.49142,6.69575 -14.44124,19.00683 -21.36855,28.71502 -2.20823,6.73485 -8.73158,10.8198 -15.77433,9.85641 -8.14039,-0.58202 -14.21452,5.53713 -21.18968,8.60023 -5.27638,5.66804 -9.78265,11.97333 -18.67479,11.8533 -6.80364,0.2232 -11.33142,5.35461 -16.406,9.07105 -6.83569,1.54311 -16.08422,5.33036 -11.36847,14.20186 6.12443,0.60021 13.04546,-2.88174 17.89027,-6.90215 7.1552,-6.79335 17.30707,-8.64474 26.83052,-8.46442 7.17537,-0.27008 11.49468,-10.06795 19.04895,-6.83811 5.87058,3.35386 15.67433,8.99235 11.94923,17.15695 -2.97702,4.30674 -9.22604,16.29514 1.42187,12.66632 8.20394,-1.59989 9.1223,-11.24504 9.10462,-18.05874 1.36856,-6.91581 3.13974,-14.09033 0.1439,-20.91181 -2.58196,-8.4039 4.08377,-15.58055 7.99661,-22.35405 3.82089,-5.95774 8.77442,-11.03191 13.42056,-16.30993 2.84773,-4.13844 -1.18814,-8.68501 -3.02471,-12.28193 z"
         id="path6014"
         style="color:#000000;fill:url(#radialGradient6017);fill-opacity:1;fill-rule:evenodd;stroke:none;stroke-width:1px;marker:none;visibility:visible;display:inline;overflow:visible"
         inkscape:connector-curvature="0" />
    </g>
    <path
       d="m 670,359.50504 c 0,168.05235 -136.23335,304.2857 -304.28571,304.2857 -168.05235,0 -304.285701,-136.23335 -304.285701,-304.2857 0,-168.05236 136.233351,-304.28571 304.285701,-304.28571 C 533.76665,55.21933 670,191.45268 670,359.50504 z"
       id="path7041"
       sodipodi:cx="365.71429"
       sodipodi:cy="359.50504"
       sodipodi:rx="304.28571"
       sodipodi:ry="304.28571"
       sodipodi:type="arc"
       style="color:#000000;fill:url(#radialGradient7775);fill-opacity:1;fill-rule:evenodd;stroke:none;stroke-width:1.9883709;marker:none;visibility:visible;display:inline;overflow:visible"
       transform="matrix(1.007019,0,0,1.004679,-0.424076,-3.11086)" />
  </g>
  <metadata
     id="metadata107">
    <rdf:RDF>
      <cc:Work>
        <dc:format>image/svg+xml</dc:format>
        <dc:type
           rdf:resource="http://purl.org/dc/dcmitype/StillImage" />
        <cc:license
           rdf:resource="http://creativecommons.org/licenses/publicdomain/" />
        <dc:publisher>
          <cc:Agent
             rdf:about="http://openclipart.org/">
            <dc:title>Open Clip Art Library</dc:title>
          </cc:Agent>
        </dc:publisher>
        <dc:title>venus dan gerhards 01</dc:title>
        <dc:date>2011-02-16T17:34:35</dc:date>
        <dc:description>originally uploaded by Dan Gerhards for OCAL 0.18</dc:description>
        <dc:source>http://openclipart.org/detail/118789/venus-dan-gerhards-01-by-anonymous</dc:source>
        <dc:creator>
          <cc:Agent>
            <dc:title>Anonymous</dc:title>
          </cc:Agent>
        </dc:creator>
        <dc:subject>
          <rdf:Bag>
            <rdf:li>astronomy</rdf:li>
            <rdf:li>clip art</rdf:li>
            <rdf:li>clipart</rdf:li>
            <rdf:li>planet</rdf:li>
            <rdf:li>venus</rdf:li>
          </rdf:Bag>
        </dc:subject>
      </cc:Work>
      <cc:License
         rdf:about="http://creativecommons.org/licenses/publicdomain/">
        <cc:permits
           rdf:resource="http://creativecommons.org/ns#Reproduction" />
        <cc:permits
           rdf:resource="http://creativecommons.org/ns#Distribution" />
        <cc:permits
           rdf:resource="http://creativecommons.org/ns#DerivativeWorks" />
      </cc:License>
    </rdf:RDF>
  </metadata>
</svg>
